<svg width="555" height="104" viewBox="0 0 555 104" fill="none" xmlns="http://www.w3.org/2000/svg">
<path fill-rule="evenodd" clip-rule="evenodd" d="M38.5126 4.48047C39.1525 4.48051 39.8728 4.56065 40.5126 4.64062C46.1921 5.44084 46.1922 10.3205 45.0722 14.4004C44.1122 20.5603 36.0324 35.1197 27.3925 35.1201C26.9926 35.1201 26.5923 35.12 26.1923 35.04C22.5123 34.4 23.152 31.44 24.832 28.96C25.1519 28.6401 25.4721 28.4805 25.872 28.4805C26.432 28.4805 26.8325 28.9606 26.3525 29.6006C24.4325 32.4806 25.1522 33.7607 26.9921 33.7607C28.1921 33.7607 30.032 33.2001 31.7919 32.0801C37.8719 28.1601 42.2718 20.6403 43.6318 14.3203C44.2718 11.8403 44.7522 6.16037 40.1923 6.24023C25.4724 6.24023 14.0318 22.1602 11.6318 34.2402C11.3118 36.4002 11.0717 38.7208 11.5517 40.8008C12.2718 43.2807 15.1521 47.2004 18.5918 47.6006C19.7918 46.8006 21.0727 46.1608 22.5127 45.8408C23.1524 45.841 23.5517 46.1609 23.5517 46.8008C22.9119 47.8405 22.272 48.8797 20.4326 48.8799H19.9521C9.95225 54.5598 1.31198 64.0801 1.55171 74.8799C1.71171 81.5999 5.07265 86.2402 10.5127 86.2402C12.7525 86.2401 15.3125 85.4405 18.1123 83.6807C30.4323 75.9207 36.9126 61.6006 44.4326 49.6006C44.6726 49.2806 45.0725 49.1201 45.3925 49.1201C45.9524 49.1203 46.432 49.6004 46.0322 50.2402C46.0049 50.2828 45.9777 50.3259 45.9501 50.3691C45.9375 50.4786 45.9036 50.5969 45.8418 50.7207C44.6419 52.7205 44.7211 53.1205 44.2412 55.4404C45.4412 54.0004 46.3214 52.3199 47.5214 50.8799C49.0413 49.04 50.0817 48.3203 50.8017 48.3203C52.6415 48.3206 52.3212 53.2807 52.3212 55.6807C53.4412 54.4807 54.8819 50.6406 57.0419 50.6406H57.3613C59.2011 50.8806 58.4015 55.9195 58.4013 57.04C61.7613 55.0401 63.5211 52.72 66.1611 50.0801C66.1857 50.0637 66.2103 50.0489 66.2334 50.0342C66.4956 48.7858 66.7279 47.5227 66.9189 46.2402C67.1588 45.8404 67.3987 45.6807 67.6386 45.6807C68.0385 45.6808 68.3584 46.0007 68.4384 46.6406C68.1185 48.4804 67.7983 50.2402 67.3984 52C68.4383 50.5602 69.6384 49.3604 71.1582 48.4805C71.3182 48.4005 71.4785 48.3203 71.5585 48.3203C71.6385 48.3204 71.7189 48.4004 71.8789 48.4004C78.7581 52.3203 70.0383 57.44 65.3984 58.96C63.7984 64 61.7187 68.8807 59.7187 73.7607C58.2787 79.1206 57.0779 84.6404 55.958 90.2402C55.078 94.4001 55.3183 99.4399 52.6787 102.88C52.3587 103.04 52.278 103.04 51.958 103.04H51.7187C51.3987 102.88 51.3181 102.8 51.1582 102.48C49.2382 95.3605 51.2387 91.7605 53.7187 84.5605C55.0787 80.7206 56.6782 76.8801 58.1982 73.1201C59.5582 68.4002 61.1583 63.8403 63.2382 59.3604C63.3182 59.3604 63.3183 59.2802 63.3183 59.2002C62.8384 58.8801 62.8387 58.0807 63.5585 57.7607C63.7184 57.7607 63.8784 57.7605 64.1181 57.6807L64.3584 57.1201C64.777 55.8043 65.1613 54.4771 65.5087 53.1348C63.3289 55.5927 60.594 58.6403 58.0019 58.6406L57.3613 58.3203C56.4014 56.5604 56.7217 54.4004 56.8017 52.4805C55.0418 53.3604 54.5616 57.4399 52.082 57.4404C50.162 57.4404 50.6416 54 50.6416 52.96C50.7215 52.0801 50.6416 51.2802 50.6416 50.4004C47.6816 51.5204 46.5615 57.1997 43.6816 57.8398C43.1216 57.8398 42.9616 57.7603 42.6416 57.2803C42.5706 56.8426 42.5264 56.4293 42.5039 56.0352C35.2307 68.1814 23.248 87.8405 10.3525 87.8408C9.31254 87.8408 8.19226 87.6804 7.1523 87.4404C1.7924 85.6805 0.592279 79.9206 0.112261 75.6006C-1.16773 64.7207 8.75211 54.8807 16.9121 48.7207C17.0721 48.6407 17.2325 48.5604 17.3925 48.4004C14.5925 47.6004 10.992 45.6804 9.87203 41.4404C6.67203 29.4404 22.9126 4.48047 38.5126 4.48047ZM55.3984 84.8799C55.3984 84.8799 55.3185 84.9601 55.3183 85.04C53.7983 89.36 50.9983 95.6006 52.2783 100.641C54.0382 96.9607 53.3985 94.4805 54.3584 89.7607C54.6784 88.0807 54.9984 86.4799 55.3984 84.8799ZM71.6386 50.0801C69.1586 51.6001 67.4781 54.4002 66.1181 57.2002C69.3981 56.1602 73.3182 53.9204 72.3584 50.4805C72.1184 50.3205 71.8786 50.1601 71.6386 50.0801Z" fill="black"/>
<path fill-rule="evenodd" clip-rule="evenodd" d="M243.57 2.7207C243.97 2.7207 244.29 3.04066 244.29 3.68066C241.89 10.3205 239.73 17.0408 237.25 23.6807C233.89 32.9605 229.97 42.0806 226.61 51.4404C222.77 62.3203 217.811 70.2401 221.011 81.9199C230.12 66.8179 246.332 55.8665 263.51 52.8115C263.609 52.487 263.719 52.1851 263.828 51.9199C264.468 50.4802 264.788 50.24 265.748 49.2002C265.988 49.0402 266.149 48.96 266.309 48.96C266.548 48.96 266.708 49.0402 266.788 49.1201L266.549 48.7207C266.469 48.0807 266.869 47.6807 267.269 47.6807C267.508 47.6807 267.668 47.7601 267.908 47.9199C268.148 48.2399 268.389 48.6401 268.549 49.04C269.429 49.9999 270.628 50.2402 271.828 50.2402C272.548 50.2402 273.268 50.1601 273.988 50.0801H274.011C274.091 49.5204 274.411 49.2804 274.811 49.2803C275.211 49.2803 275.611 49.6803 275.611 50.2402C275.611 52.5602 273.851 54.3203 273.451 57.2803C275.691 54.6404 277.611 50.3209 280.891 48.7207C281.051 48.6407 281.211 48.5605 281.291 48.5605C281.531 48.5606 281.691 48.6408 281.851 48.8008C283.29 50.2409 282.411 56.1602 284.331 56.1602C285.239 56.1601 286.774 54.7807 288.109 53.2998C289.36 49.9733 292.38 47.6807 294.653 47.6807C295.533 47.6807 296.334 48.0008 296.894 48.8008C297.453 48.3209 297.933 48.0802 298.413 48.0801C298.573 48.0801 298.814 48.0802 298.974 48.1602C299.294 48.4001 299.373 48.4808 299.453 48.8008C299.533 50.7206 299.454 52.6408 299.134 54.6406C301.054 52.8807 303.053 51.2005 305.373 49.6006C305.459 49.5578 305.545 49.5149 305.618 49.4844C306.54 47.7575 307.724 46.3489 308.859 45.9199C309.259 45.76 309.579 45.6807 309.899 45.6807C312.459 45.6812 310.139 51.6007 305.899 52.8008C305.419 54.4807 305.34 56.0807 305.979 56.6406C306.139 56.7205 306.219 56.8008 306.459 56.8008C308.459 56.8008 313.819 50.8801 314.779 50.0801C314.784 50.0767 314.79 50.0737 314.795 50.0703C314.852 49.9295 314.906 49.7996 314.952 49.6807C315.192 49.2807 315.512 49.1202 315.832 49.1201C316.232 49.1201 316.552 49.4402 316.552 50.0801C315.912 51.6001 314.792 54.5602 314.552 56.2402C315.912 52.1603 317.672 49.9201 320.712 48.0801C320.952 47.9201 321.112 47.8408 321.272 47.8408C321.432 47.8409 321.592 47.9205 321.672 48.1602C322.712 50.8002 323.592 52 325.112 52C326.312 51.9999 327.832 51.28 330.072 50.0801C330.232 50.0002 330.392 49.9201 330.552 49.9199C331.272 49.9199 331.512 50.9605 330.712 51.5205C328.552 52.7203 326.712 53.2802 325.272 53.2803C323.033 53.2803 321.592 52.0805 320.952 49.7607C316.632 51.8408 316.152 58.8008 313.752 58.8008H313.512C313.192 58.6408 313.112 58.5602 312.952 58.2402C312.507 57.082 312.954 55.1299 313.562 53.3096C311.404 55.5642 308.537 58.4805 306.459 58.4805C303.68 58.4804 303.495 55.3772 304.468 52.2393C302.503 53.8161 300.538 55.6544 298.573 57.6807C296.733 66.1604 292.333 75.0401 288.894 82C286.094 87.52 283.374 94.3207 278.894 98.7207C278.094 99.5206 277.373 99.8398 276.733 99.8398C275.213 99.8398 274.334 97.68 274.254 95.04C274.174 92.6401 275.374 90.4002 276.254 88.2402C280.494 78.0004 289.853 64.1605 297.293 56.4805C297.773 54.2405 298.014 52.1603 297.934 50.3203C296.414 52.4003 291.693 57.04 288.653 57.04C288.414 57.04 288.254 56.9601 288.094 56.96C287.774 56.72 287.613 56.5602 287.533 56.1602V56.1543C286.325 57.2275 285.092 58 284.091 58C281.451 57.9998 281.451 52.8803 281.131 50.3203C278.571 51.8404 275.53 59.6006 272.811 59.6006C272.651 59.6004 272.571 59.5206 272.411 59.5205C272.091 59.3605 272.011 59.28 271.851 58.96C271.275 55.8908 272.999 53.8943 273.714 51.7461C273.339 51.7983 272.924 51.8398 272.469 51.8398C271.349 51.8398 270.148 51.6 268.948 51.04C269.108 54.32 266.868 58.2402 264.948 58.2402C264.388 58.2401 263.829 57.8399 263.429 57.04C263.082 56.3457 263.033 55.4471 263.138 54.5498C246.25 57.7227 230.468 68.8035 221.811 83.6006C221.97 84.0805 221.57 84.5605 221.09 84.5605C220.93 84.5605 220.77 84.5603 220.61 84.4805C220.21 84.3205 220.131 84.0804 220.051 83.6807L220.45 82.8799C219.97 82.8799 219.81 82.8004 219.49 82.4004C217.09 70.0804 220.93 62.56 225.09 50.96C228.45 41.6 232.29 32.4801 235.73 23.2002C238.13 16.5603 240.29 9.84021 242.69 3.28027C242.93 2.88034 243.25 2.7207 243.57 2.7207ZM296.413 60.0801C290.653 66.4801 285.453 74.2406 281.853 80.6406C280.173 83.6007 276.174 91.1203 275.853 95.2002C275.773 96.2402 276.173 97.2803 276.573 98.3203C279.613 97.3603 282.653 90.4805 283.773 88.4004C287.293 81.8404 293.533 69.9201 296.413 60.0801ZM267.108 49.6807C267.108 49.9205 267.028 50.1604 266.868 50.3203C265.508 51.6804 263.988 54.5606 264.948 56.5605C267.588 54.6406 267.828 51.6807 267.108 49.6807ZM294.413 49.1201C293.712 49.1203 292.894 49.6174 292.121 50.3379C292.112 50.4561 292.079 50.5851 292.011 50.7207C291.518 51.5834 290.607 52.8592 289.53 54.1045C289.359 54.5833 289.294 54.9958 289.373 55.2803C291.133 54.4003 292.654 53.2801 294.094 52.0801C294.494 51.68 295.053 50.8799 295.693 50.0801C295.373 49.4402 294.893 49.1201 294.413 49.1201ZM309.02 47.5205C308.14 48.0005 307.259 49.4401 306.539 50.96C308.539 50.08 308.859 48.4805 309.02 47.5205Z" fill="black"/>
<path fill-rule="evenodd" clip-rule="evenodd" d="M490.113 0.800781C490.513 0.800781 490.833 1.12059 490.913 1.60059H490.993C490.913 1.68029 490.913 1.68084 490.913 1.76074C490.193 4.48069 488.514 8.08081 486.754 11.6006C485.554 15.5205 484.594 19.5206 483.474 23.5205C480.114 35.2003 477.633 43.3602 475.233 54C479.021 52.8164 482.808 51.3206 486.288 49.668C486.527 49.2772 486.844 49.1202 487.16 49.1201C487.56 49.1201 487.88 49.4402 487.88 50.0801C487.24 51.6001 486.12 54.5602 485.88 56.2402C487.24 52.1603 489 49.9201 492.04 48.0801C492.28 47.9201 492.441 47.8408 492.601 47.8408C492.76 47.8409 492.92 47.9205 493 48.1602C494.04 50.8002 494.92 52 496.44 52C497.64 52 499.16 51.28 501.4 50.0801C501.417 50.0715 501.435 50.0641 501.452 50.0557C501.69 49.7523 502.001 49.6007 502.312 49.6006C502.792 49.6006 503.193 50.0807 502.873 50.7207C501.673 52.7205 501.752 53.1205 501.272 55.4404C502.472 54.0004 503.353 52.3199 504.553 50.8799C506.073 49.04 507.113 48.3203 507.833 48.3203C509.673 48.3207 509.353 53.2808 509.353 55.6807C510.473 54.4807 511.913 50.6406 514.073 50.6406H514.393C516.232 50.8806 515.433 55.9195 515.433 57.04C518.793 55.0401 520.552 52.72 523.192 50.0801C523.208 50.0694 523.225 50.0598 523.24 50.0498C523.406 49.6047 523.572 49.1625 523.71 48.7207C523.95 48.3207 524.27 48.1602 524.59 48.1602C524.99 48.1603 525.309 48.4803 525.31 49.1201C524.59 51.28 523.39 53.6001 524.189 55.9199C524.429 55.9999 524.59 56 524.83 56C527.19 55.9995 529.839 51.8729 530.918 50.3008C531.881 48.2139 533.253 46.4148 534.562 45.9199C534.962 45.76 535.283 45.6807 535.602 45.6807C538.162 45.6812 535.842 51.6007 531.602 52.8008C531.123 54.4807 531.043 56.0807 531.683 56.6406C531.842 56.7205 531.922 56.8008 532.162 56.8008C534.128 56.8008 539.343 51.0792 540.431 50.126C540.526 48.7509 541.622 47.6311 545.136 46.96C546.175 46.9602 546.415 48.0006 545.535 48.5605C544.735 48.7205 543.775 48.6403 542.976 49.04C541.216 49.76 542.655 53.1997 542.815 54.0801V53.9199L542.575 53.1201C542.495 52.8808 542.735 53.52 542.815 53.9199C542.815 53.9999 542.815 54.0802 542.895 54.1602C545.695 52.4802 549.216 51.2001 551.136 50.0801C551.375 49.9202 551.535 49.8398 551.775 49.8398C552.415 49.8399 552.815 50.5602 552.255 51.2002C550.175 52.1602 546.255 53.76 543.375 55.8398C544.015 58.6398 543.535 60.0807 539.295 60.7207C538.735 60.6407 538.495 60.3998 538.415 59.9199C538.335 57.9201 539.855 56.3199 541.775 54.96C541.474 53.8794 540.99 52.8225 540.69 51.8389C538.547 53.9814 534.744 58.4805 532.162 58.4805C529.972 58.4804 529.395 56.5531 529.724 54.2002C527.955 56.0379 525.843 57.6807 524.35 57.6807C523.065 57.6806 522.208 56.4665 522.455 53.2295C520.289 55.6702 517.592 58.6403 515.033 58.6406L514.393 58.3203C513.433 56.5604 513.753 54.4004 513.833 52.4805C512.073 53.3604 511.593 57.4399 509.113 57.4404C507.193 57.4404 507.673 54 507.673 52.96C507.753 52.0801 507.673 51.2802 507.673 50.4004C504.713 51.5204 503.593 57.1997 500.713 57.8398C500.153 57.8398 499.993 57.7603 499.673 57.2803C499.36 55.3512 499.525 53.8987 500.119 52.4561C498.774 53.0136 497.592 53.2802 496.601 53.2803C494.361 53.2803 492.92 52.0805 492.28 49.7607C487.96 51.8409 487.48 58.8008 485.08 58.8008H484.841C484.521 58.6408 484.44 58.5602 484.28 58.2402C483.707 56.7493 484.613 53.9434 485.437 51.7959C482.666 53.013 479.014 54.3669 474.833 55.6006C474.433 57.3604 474.114 59.2804 473.714 61.2002C473.074 69.6802 465.793 90.5607 474.913 95.7607C475.473 96.4007 474.913 97.04 474.273 97.04C474.193 97.04 474.033 97.0399 473.873 96.96C463.634 93.5993 471.953 67.2 472.113 61.04C472.433 59.3601 472.753 57.68 473.153 56.0801C468.673 57.3601 463.713 58.5602 458.993 59.2002C456.033 63.8402 452.833 68.3201 449.793 73.04C448.593 74.7201 444.674 81.5196 444.434 83.9199C444.354 84.3998 443.954 84.6405 443.634 84.6406C443.394 84.8006 443.233 84.8799 442.993 84.8799C442.673 84.8797 442.433 84.64 442.353 84.1602C442.914 79.2 448.433 64.0804 444.353 59.3604C441.154 58.4004 441.473 56.8011 442.913 56.8008C443.473 56.8008 444.273 57.1201 445.073 57.9199C446.353 58.2399 447.793 58.3203 449.313 58.3203C452.193 58.3203 455.233 58.1607 458.113 57.7607L459.554 55.4404C468.034 41.9206 474.273 32.9605 481.233 18.7207L485.153 11.2002C486.193 7.76021 487.473 4.48026 489.313 1.28027C489.553 0.960372 489.873 0.800863 490.113 0.800781ZM456.993 59.4404C454.593 59.7604 452.273 59.9199 450.113 59.9199C449.313 59.9199 448.593 59.9198 447.873 59.8398C447.233 59.8398 446.753 59.7606 446.273 59.6807L446.993 61.6807C447.313 62.7206 447.314 64.1604 447.394 65.3604C447.394 67.6003 447.074 70.0003 446.594 72.2402L445.073 78.0801C446.273 75.6801 447.714 73.3603 448.353 72.3203C451.233 68.0004 454.193 63.8403 456.993 59.4404ZM542.016 56.96C541.296 57.5999 540.735 58.24 540.415 58.8799L541.535 58.6406C541.855 58.0806 541.936 57.52 542.016 56.96ZM482.833 19.2002C475.713 33.5201 469.393 42.4802 460.913 56.1602L460.113 57.5205C464.273 56.8805 468.834 55.8405 473.474 54.4805C475.874 43.4405 478.513 35.1201 481.873 23.1201L483.073 18.6406L482.833 19.2002ZM534.723 47.5205C533.93 47.9526 533.138 49.1627 532.463 50.5088C532.465 50.628 532.437 50.758 532.376 50.8975C534.256 50.0062 534.566 48.4586 534.723 47.5205Z" fill="black"/>
<path d="M211.895 0C213.015 0.000124212 213.175 1.44041 212.056 1.60059C207.576 2.16059 197.815 16.8 196.295 19.04C187.735 31.8399 182.695 45.9201 179.815 60.96C178.775 66.1598 177.336 74.3198 177.976 79.7598L178.295 80C179.015 80.5599 178.695 81.4402 177.976 81.4404C177.816 81.4404 177.655 81.4404 177.495 81.3604C166.215 74.6403 165.815 61.4398 165.815 48.8799C165.895 37.0402 167.255 30.1602 168.615 18.4805C168.855 16.2405 169.496 12.6402 169.976 9.2002C162.376 25.76 153.096 41.36 145.096 57.7598C141.016 66.0798 135.575 74.9605 135.735 84.4805L135.976 84.1602C136.215 84.0003 136.375 83.9199 136.615 83.9199C137.175 83.9199 137.575 84.4 137.255 85.04C136.375 86.16 135.815 86.6406 135.335 86.6406C133.575 86.6395 134.535 79.2 134.775 78.0801C136.535 70.7202 140.295 64.0002 143.495 57.3604C152.135 39.5205 162.455 22.6403 170.295 4.48047C170.295 3.36067 170.215 2.32057 169.976 1.60059C169.896 0.960605 170.295 0.640645 170.695 0.640625C171.015 0.640625 171.255 0.720245 171.495 1.04004L171.655 1.52051C171.815 1.3606 172.055 1.28037 172.295 1.28027C172.695 1.28027 173.096 1.60021 173.096 2.16016C172.696 3.04 172.296 3.91996 171.976 4.7998C171.896 9.4398 170.536 15.9207 170.216 18.7207C167.976 38.2407 163.176 68.2407 176.216 78.6406C175.896 73.1207 177.256 65.6005 178.216 60.5605C181.176 45.6005 186.056 30.5601 195.016 18.0801C197.176 15.1196 206.296 0.879975 211.895 0Z" fill="black"/>
<path d="M420.099 0C421.218 0.000202651 421.378 1.44036 420.259 1.60059C415.779 2.16059 406.018 16.8 404.498 19.04C395.938 31.8399 390.899 45.9201 388.019 60.96C386.979 66.1598 385.539 74.3198 386.179 79.7598L386.498 80C387.218 80.5599 386.898 81.4402 386.179 81.4404C386.019 81.4404 385.858 81.4404 385.698 81.3604C374.418 74.6403 374.019 61.4399 374.019 48.8799C374.099 37.0402 375.458 30.1602 376.818 18.4805C377.058 16.2405 377.699 12.6402 378.179 9.2002C370.579 25.76 361.299 41.36 353.299 57.7598C349.219 66.0798 343.778 74.9605 343.938 84.4805L344.179 84.1602C344.419 84.0003 344.578 83.9199 344.818 83.9199C345.378 83.9199 345.778 84.4 345.458 85.04C344.578 86.16 344.018 86.6406 343.538 86.6406C341.778 86.6397 342.738 79.2 342.978 78.0801C344.738 70.7202 348.498 64.0002 351.698 57.3604C360.338 39.5205 370.658 22.6403 378.498 4.48047C378.498 3.36068 378.419 2.32057 378.179 1.60059C378.099 0.960585 378.498 0.640625 378.898 0.640625C379.218 0.640629 379.458 0.720222 379.698 1.04004L379.858 1.52051C380.018 1.36058 380.258 1.28035 380.498 1.28027C380.898 1.28027 381.299 1.60021 381.299 2.16016C380.899 3.03999 380.499 3.91996 380.179 4.7998C380.099 9.4398 378.738 15.9207 378.418 18.7207C376.178 38.2407 371.378 68.2407 384.418 78.6406C384.098 73.1208 385.458 65.6005 386.418 60.5605C389.378 45.6005 394.259 30.5601 403.219 18.0801C405.379 15.1195 414.499 0.87997 420.099 0Z" fill="black"/>
<path fill-rule="evenodd" clip-rule="evenodd" d="M444.743 0.400391C445.063 0.400391 445.303 0.480687 445.623 0.640625C448.343 2.00063 443.704 11.0407 443.384 11.6807C442.504 13.8406 441.543 16.0001 440.583 18.0801C436.183 27.76 431.144 38.3203 425.384 47.2803L425.063 47.8398C423.943 53.7598 423.703 59.7607 425.703 65.6807C425.943 66.3205 425.463 66.7998 424.983 66.7998C424.663 66.7998 424.424 66.6402 424.184 66.2402C422.184 63.0403 422.104 57.2804 423.144 50.5605L421.623 52.6406C420.823 53.761 418.103 57.1199 416.264 57.1201C415.464 57.1201 414.903 56.4004 414.743 54.6406C414.731 54.4943 414.733 54.3435 414.745 54.1895C412.724 56.255 410.305 58.4805 408.49 58.4805C406 58.4804 405.592 55.988 406.234 53.2119C404.066 55.4791 401.145 58.4805 399.037 58.4805C393.757 58.4803 397.837 47.2799 401.437 45.9199C401.837 45.76 402.158 45.6807 402.478 45.6807C405.037 45.6812 402.717 51.6007 398.478 52.8008C397.998 54.4807 397.918 56.0807 398.558 56.6406C398.717 56.7205 398.797 56.8008 399.037 56.8008C401.027 56.8008 406.344 50.9391 407.343 50.0928C408.3 48.0951 409.624 46.3983 410.891 45.9199C411.29 45.76 411.611 45.6807 411.931 45.6807C414.49 45.6812 412.17 51.6007 407.931 52.8008C407.451 54.4807 407.371 56.0807 408.011 56.6406C408.17 56.7205 408.25 56.8008 408.49 56.8008C410.193 56.8008 414.33 52.5111 416.115 50.7412C416.667 49.8123 417.256 48.9546 417.623 48.3203C418.743 46.5604 419.783 44.9604 421.703 44.3203C422.183 44.3203 422.343 44.4003 422.583 44.7998L422.983 45.7607C423.223 46.4005 422.743 46.8797 422.264 46.8799C421.944 46.8799 421.704 46.7202 421.464 46.3203C421.464 46.2404 421.463 46.1604 421.384 46.1602C420.104 46.1602 416.264 53.8404 416.424 55.4404C418.904 55.1199 422.583 48.7997 423.863 46.7998C425.943 36.6401 430.023 25.0405 433.783 16.6406C435.063 13.8407 441.223 0.401187 444.743 0.400391ZM401.598 47.5205C400.718 48.0005 399.837 49.4401 399.117 50.96C401.117 50.08 401.438 48.4805 401.598 47.5205ZM411.051 47.5205C410.171 48.0005 409.29 49.4401 408.57 50.96C410.57 50.08 410.891 48.4805 411.051 47.5205ZM444.823 2.08008C444.823 1.92056 444.584 2.16012 444.424 2.24023C441.624 3.60019 436.584 14.2396 435.304 17.04C431.624 25.44 428.503 34.2402 426.103 43.1201C432.183 33.0402 437.223 22.1602 441.783 11.2803L443.863 6.32031C444.423 5.04031 445.143 3.36008 444.823 2.08008Z" fill="black"/>
<path fill-rule="evenodd" clip-rule="evenodd" d="M106.384 45.6807C108.943 45.6812 106.623 51.6007 102.384 52.8008C101.904 54.4806 101.824 56.0807 102.464 56.6406C102.623 56.7205 102.704 56.8008 102.943 56.8008C104.91 56.8008 110.124 51.0793 111.212 50.126C111.307 48.7509 112.403 47.6311 115.917 46.96C116.957 46.9602 117.196 48.0006 116.316 48.5605C115.517 48.7205 114.557 48.6403 113.757 49.04C111.997 49.76 113.436 53.1997 113.597 54.0801V53.9199L113.356 53.1201C113.277 52.8808 113.517 53.52 113.597 53.9199C113.597 53.9999 113.597 54.0802 113.677 54.1602C116.477 52.4802 119.997 51.2001 121.917 50.0801C122.157 49.9203 122.317 49.8398 122.557 49.8398C123.197 49.8399 123.596 50.5602 123.036 51.2002C120.956 52.1602 117.036 53.76 114.156 55.8398C114.796 58.6398 114.316 60.0807 110.076 60.7207C109.516 60.6407 109.276 60.3998 109.196 59.9199C109.116 57.9201 110.637 56.3199 112.557 54.96C112.255 53.8794 111.772 52.8225 111.472 51.8389C109.328 53.9814 105.525 58.4805 102.943 58.4805C100.173 58.4804 99.981 55.3965 100.943 52.2686C99.4172 52.9541 98.0883 53.2802 96.9912 53.2803C94.7513 53.2803 93.3109 52.0805 92.6709 49.7607C88.3511 51.8409 87.8706 58.8008 85.4707 58.8008H85.2314C84.9114 58.6408 84.8309 58.5602 84.6709 58.2402C84.3194 57.3263 84.524 55.9183 84.9248 54.4707C83.2137 56.1953 81.2375 57.6807 79.8183 57.6807C78.4584 57.6806 77.5786 56.3203 77.9785 52.6406C78.1385 51.2807 78.7787 50.0006 79.1787 48.7207C79.4187 48.3207 79.7385 48.1602 80.0585 48.1602C80.4585 48.1602 80.7782 48.4803 80.7783 49.1201C80.0583 51.28 78.8585 53.6001 79.6582 55.9199C79.8982 55.9999 80.0588 56 80.2988 56C82.7238 55.9996 85.4553 51.6405 86.4726 50.1758C86.5459 49.9944 86.613 49.8286 86.6709 49.6807C86.9108 49.2807 87.2308 49.1202 87.5507 49.1201C87.9507 49.1201 88.2704 49.4402 88.2705 50.0801C87.6305 51.6001 86.5105 54.5602 86.2705 56.2402C87.6304 52.1603 89.3907 49.9201 92.4306 48.0801C92.6706 47.9201 92.8312 47.8408 92.9912 47.8408C93.151 47.8409 93.3106 47.9205 93.3906 48.1602C94.4306 50.8002 95.311 52 96.831 52C98.031 52 99.551 51.2801 101.791 50.0801C101.796 50.0778 101.8 50.0755 101.805 50.0732C102.761 48.084 104.081 46.3968 105.344 45.9199C105.744 45.76 106.064 45.6807 106.384 45.6807ZM112.797 56.96C112.077 57.5999 111.516 58.24 111.196 58.8799L112.316 58.6406C112.636 58.0806 112.717 57.52 112.797 56.96ZM105.504 47.5205C104.624 48.0005 103.743 49.4401 103.023 50.96C105.023 50.08 105.344 48.4805 105.504 47.5205Z" fill="black"/>
<path d="M553.12 56.3203C553.6 56.3203 553.92 56.6401 554 56.96C554.16 56.96 554.24 57.04 554.32 57.04C554.64 57.2 554.721 57.2807 554.801 57.6807C554.961 58.3204 554.8 58.7204 554.32 59.2803C553.92 59.7603 553.52 60 553.2 60C551.76 59.9998 550.88 56.8004 553.12 56.3203Z" fill="black"/>
<path fill-rule="evenodd" clip-rule="evenodd" d="M192.034 47.6807C192.274 47.6807 192.434 47.7601 192.674 47.9199C192.914 48.2399 193.154 48.6401 193.314 49.04C194.194 49.9999 195.394 50.2402 196.594 50.2402C197.314 50.2402 198.034 50.1601 198.754 50.0801C199.874 50.0801 200.034 51.5207 198.914 51.6807C198.434 51.7606 197.874 51.8398 197.234 51.8398C196.114 51.8398 194.914 51.6 193.714 51.04C193.874 54.32 191.634 58.2402 189.714 58.2402C189.154 58.2401 188.594 57.8399 188.194 57.04C187.474 55.6 188.034 53.2799 188.594 51.9199C189.234 50.4802 189.554 50.24 190.514 49.2002C190.754 49.0402 190.914 48.96 191.074 48.96C191.314 48.96 191.474 49.0402 191.554 49.1201L191.314 48.7207C191.234 48.0807 191.634 47.6807 192.034 47.6807ZM191.874 49.6807C191.874 49.9205 191.794 50.1604 191.634 50.3203C190.274 51.6804 188.754 54.5606 189.714 56.5605C192.354 54.6406 192.594 51.6807 191.874 49.6807Z" fill="black"/>
<path d="M83.4189 38.0801C83.9786 38.0803 84.3783 38.5604 84.0585 39.2002C83.0186 40.4802 82.5384 42.5602 81.8984 44.1602C81.6584 44.5601 81.3385 44.7207 81.0185 44.7207C80.6186 44.7207 80.219 44.4005 80.2988 43.7607C81.0188 41.9208 81.6583 39.8403 82.7783 38.3203C83.0183 38.1603 83.1789 38.0801 83.4189 38.0801Z" fill="black"/>
<path d="M527.949 38.0801C528.509 38.0801 528.91 38.5603 528.59 39.2002C527.55 40.4802 527.07 42.5602 526.43 44.1602C526.19 44.5601 525.87 44.7207 525.55 44.7207C525.15 44.7207 524.75 44.4005 524.83 43.7607C525.55 41.9208 526.19 39.8403 527.31 38.3203C527.549 38.1604 527.709 38.0802 527.949 38.0801Z" fill="black"/>
</svg>
