<svg width="147" height="98" viewBox="0 0 147 98" fill="none" xmlns="http://www.w3.org/2000/svg">
<path d="M146.347 97.0868H0V0H146.347V97.0868ZM0.553649 96.5334H32.7569V33.5966H0.553649V96.5334ZM33.31 96.5334H145.794V64.0436H33.31V96.5334ZM70.2001 79.3419C70.4075 79.3419 70.5917 79.379 70.7532 79.4537C70.9141 79.5267 71.0425 79.6274 71.1365 79.7553C71.2316 79.8831 71.2819 80.0281 71.2875 80.1908H70.9103C70.8914 80.0314 70.8146 79.908 70.6807 79.82C70.5469 79.732 70.3821 79.6878 70.1874 79.6878C70.0452 79.6878 69.9202 79.7105 69.8135 79.757C69.7073 79.8029 69.6249 79.8665 69.5651 79.9468C69.5065 80.0276 69.4772 80.1194 69.4772 80.2218C69.4772 80.3081 69.4977 80.3823 69.538 80.4443C69.5801 80.5051 69.6337 80.5555 69.699 80.5964C69.7637 80.6363 69.8317 80.6695 69.9031 80.6955C69.9739 80.7204 70.0397 80.7409 70.0994 80.7564L70.4263 80.8443C70.5098 80.8665 70.6033 80.8969 70.7062 80.9362C70.8096 80.9749 70.9091 81.0275 71.0032 81.095C71.0983 81.1609 71.1769 81.2456 71.2388 81.3496C71.3002 81.4531 71.3317 81.5804 71.3317 81.7314C71.3317 81.9052 71.2853 82.0629 71.1945 82.2035C71.1044 82.3435 70.9722 82.4547 70.7985 82.5377C70.6254 82.6207 70.4158 82.6622 70.1686 82.6622C69.9379 82.6622 69.7383 82.6251 69.5696 82.5504C69.402 82.4763 69.2698 82.3723 69.1735 82.2394C69.0784 82.1066 69.0248 81.9517 69.012 81.7757H69.4141C69.4246 81.8969 69.4656 81.9976 69.5369 82.0773C69.6088 82.1559 69.7006 82.2145 69.8107 82.2533C69.9213 82.2909 70.0408 82.3103 70.1686 82.3103C70.3174 82.3103 70.4512 82.2859 70.5696 82.2378C70.6874 82.1885 70.7814 82.1205 70.8505 82.0336C70.9197 81.9456 70.954 81.8421 70.954 81.7248C70.954 81.6185 70.9241 81.5317 70.8649 81.4647C70.8052 81.3972 70.7261 81.3424 70.6287 81.3009C70.5314 81.2588 70.4258 81.2218 70.3129 81.1902L69.9169 81.0773C69.6658 81.0054 69.4667 80.9019 69.3201 80.768C69.1735 80.6335 69.1 80.4581 69.1 80.2412C69.1005 80.0608 69.1487 79.9036 69.246 79.7697C69.3445 79.6346 69.4766 79.5295 69.642 79.4554C69.8085 79.3795 69.9949 79.3419 70.2001 79.3419ZM75.6763 79.3419C75.8837 79.3419 76.0679 79.379 76.2294 79.4537C76.3909 79.5267 76.5187 79.6274 76.6127 79.7553C76.7084 79.8831 76.7581 80.0281 76.7637 80.1908H76.3865C76.3677 80.0314 76.2913 79.908 76.1569 79.82C76.0231 79.732 75.8588 79.6878 75.6641 79.6878C75.5214 79.6878 75.397 79.7105 75.2902 79.757C75.1846 79.8029 75.1016 79.8665 75.0419 79.9468C74.9833 80.0276 74.954 80.1194 74.9534 80.2218C74.9534 80.3081 74.9744 80.3823 75.0154 80.4443C75.0574 80.5046 75.1105 80.5555 75.1752 80.5964C75.2399 80.6363 75.3079 80.6695 75.3793 80.6955C75.4506 80.7204 75.5165 80.7409 75.5756 80.7564L75.9025 80.8443C75.9866 80.8665 76.0801 80.8969 76.1824 80.9362C76.2864 80.9749 76.3854 81.0275 76.4794 81.095C76.5745 81.1609 76.6531 81.2456 76.715 81.3496C76.777 81.4531 76.8079 81.5804 76.8079 81.7314C76.8079 81.9052 76.7626 82.0629 76.6713 82.2035C76.5812 82.3435 76.449 82.4547 76.2753 82.5377C76.1027 82.6207 75.892 82.6622 75.6448 82.6622C75.4147 82.6622 75.215 82.6251 75.0463 82.5504C74.8793 82.4763 74.7471 82.3723 74.6508 82.2394C74.5552 82.1066 74.501 81.9517 74.4888 81.7757H74.8909C74.9014 81.8974 74.9423 81.9976 75.0137 82.0773C75.0861 82.1559 75.1768 82.2145 75.2869 82.2533C75.3981 82.2909 75.5176 82.3103 75.6448 82.3103C75.7936 82.3103 75.9274 82.2859 76.0458 82.2378C76.1641 82.1885 76.2581 82.1205 76.3273 82.0336C76.3964 81.9456 76.4307 81.8421 76.4307 81.7248C76.4307 81.618 76.4008 81.5317 76.3411 81.4647C76.2814 81.3972 76.2028 81.3424 76.1055 81.3009C76.0081 81.2588 75.9031 81.2218 75.7897 81.1902L75.3937 81.0773C75.1426 81.0054 74.9429 80.9019 74.7963 80.768C74.6497 80.6335 74.5767 80.4581 74.5767 80.2412C74.5767 80.0608 74.6254 79.9036 74.7227 79.7697C74.8212 79.6346 74.9534 79.5295 75.1188 79.4554C75.2852 79.3795 75.4711 79.3419 75.6763 79.3419ZM85.2238 79.3419C85.4982 79.3419 85.7426 79.4089 85.9561 79.5433C86.1696 79.6773 86.3383 79.8682 86.4606 80.1155C86.5833 80.3629 86.6442 80.6562 86.6442 80.996C86.6442 81.3352 86.5833 81.6291 86.4606 81.8764C86.3383 82.1238 86.1696 82.3147 85.9561 82.4486C85.7426 82.5825 85.4982 82.6495 85.2238 82.6495C84.9495 82.6495 84.7056 82.5825 84.4921 82.4486C84.278 82.3147 84.1099 82.1238 83.9871 81.8764C83.8649 81.6291 83.804 81.3352 83.8035 80.996C83.8035 80.6562 83.8649 80.3629 83.9871 80.1155C84.1099 79.8682 84.278 79.6773 84.4921 79.5433C84.7056 79.4094 84.9495 79.3419 85.2238 79.3419ZM101.123 79.3419C101.292 79.3419 101.45 79.3679 101.597 79.4188C101.744 79.4692 101.876 79.5411 101.991 79.6341C102.107 79.7265 102.204 79.8372 102.282 79.9661C102.36 80.094 102.413 80.2362 102.442 80.3922H102.04C102.006 80.2865 101.96 80.1914 101.904 80.1072C101.848 80.0226 101.781 79.9506 101.704 79.8909C101.627 79.8311 101.54 79.7852 101.443 79.7536C101.345 79.7221 101.239 79.7066 101.123 79.7066C100.932 79.7066 100.759 79.7558 100.603 79.8543C100.446 79.9528 100.322 80.0978 100.23 80.2899C100.138 80.4813 100.092 80.7171 100.092 80.996C100.092 81.2749 100.138 81.5101 100.232 81.7015C100.324 81.8936 100.451 82.0386 100.61 82.1371C100.769 82.2356 100.948 82.2848 101.147 82.2848C101.332 82.2848 101.494 82.2455 101.635 82.1669C101.776 82.0872 101.886 81.9749 101.964 81.8305C102.041 81.691 102.079 81.5283 102.083 81.3418H101.235V80.996H102.461V81.3418C102.461 81.6069 102.405 81.8377 102.291 82.0336C102.18 82.2295 102.024 82.3811 101.826 82.489C101.629 82.5958 101.403 82.6495 101.147 82.6495C100.863 82.6495 100.612 82.5825 100.396 82.4486C100.182 82.3147 100.014 82.1238 99.8936 81.8764C99.7741 81.6291 99.7144 81.3352 99.7144 80.996C99.7144 80.7414 99.7487 80.5118 99.8167 80.3087C99.8858 80.1045 99.9832 79.9307 100.109 79.7868C100.234 79.6435 100.384 79.5334 100.556 79.457C100.727 79.3801 100.916 79.3419 101.123 79.3419ZM43.5724 79.3862C43.8252 79.3862 44.0315 79.4316 44.1913 79.5229C44.3528 79.6131 44.4723 79.7354 44.5497 79.8892C44.6271 80.043 44.6664 80.2152 44.6664 80.405C44.6664 80.5942 44.6271 80.7669 44.5497 80.9218C44.4734 81.0768 44.355 81.2002 44.1946 81.2926C44.0342 81.3839 43.829 81.4298 43.5785 81.4298H42.8744V82.6058H42.485V79.3862H43.5724ZM49.891 79.732H48.3379V80.82H49.7897V81.1659H48.3379V82.2599H49.9159V82.6058H47.9485V79.3862H49.891V79.732ZM54.3351 79.3862C54.5862 79.3862 54.793 79.4288 54.954 79.5146C55.1155 79.5998 55.2355 79.7166 55.313 79.8654C55.3904 80.0143 55.4291 80.1836 55.4291 80.3734C55.4291 80.5627 55.3904 80.7309 55.313 80.8775C55.2355 81.0242 55.1161 81.1399 54.9557 81.2234C54.9158 81.2439 54.8732 81.2622 54.8279 81.2776L55.5547 82.6058H55.1022L54.4219 81.3441C54.3959 81.3452 54.3688 81.3479 54.3417 81.3479H53.6376V82.6058H53.2477V79.3862H54.3351ZM60.2919 82.0585H60.3295L61.4236 79.3862H61.8882V82.6058H61.5237V80.1593H61.4927L60.4866 82.6058H60.1348L59.1288 80.1593H59.0978V82.6058H58.7327V79.3862H59.1979L60.2919 82.0585ZM65.7139 82.6058H65.3245V79.3862H65.7139V82.6058ZM80.4932 82.6058H80.1033V79.3862H80.4932V82.6058ZM92.0916 81.9201H92.1226V79.3862H92.5064V82.6058H92.1292L90.3754 80.0779H90.3444V82.6058H89.955V79.3862H90.3317L92.0916 81.9201ZM106.871 79.3862C107.122 79.3862 107.328 79.4288 107.49 79.5146C107.651 79.5998 107.771 79.7166 107.848 79.8654C107.926 80.0143 107.964 80.1836 107.964 80.3734C107.964 80.5627 107.926 80.7309 107.848 80.8775C107.771 81.0242 107.651 81.1399 107.491 81.2234C107.451 81.2439 107.409 81.2622 107.363 81.2776L108.09 82.6058H107.637L106.958 81.3441C106.931 81.3452 106.905 81.3479 106.877 81.3479H106.173V82.6058H105.784V79.3862H106.871ZM113.757 82.6058H113.349L113.025 81.6938H111.724L111.401 82.6058H110.992L112.173 79.3862H112.576L113.757 82.6058ZM119.051 81.9201H119.082V79.3862H119.465V82.6058H119.088L117.334 80.0779H117.303V82.6058H116.914V79.3862H117.291L119.051 81.9201ZM125.137 79.732H124.126V82.6058H123.736V79.732H122.724V79.3862H125.137V79.732ZM130.336 79.732H128.783V80.82H130.235V81.1659H128.783V82.2599H130.361V82.6058H128.394V79.3862H130.336V79.732ZM134.73 79.3862C135.042 79.3862 135.309 79.4504 135.532 79.5793C135.754 79.7071 135.924 79.8914 136.042 80.131C136.161 80.3701 136.22 80.6562 136.22 80.9893C136.22 81.3247 136.16 81.6136 136.041 81.8559C135.921 82.0967 135.747 82.2826 135.519 82.4121C135.291 82.541 135.013 82.6058 134.687 82.6058H133.693V79.3862H134.73ZM85.2238 79.7066C85.0291 79.7066 84.8527 79.7558 84.6945 79.8543C84.5374 79.9528 84.4124 80.0978 84.319 80.2899C84.2266 80.4813 84.1807 80.7171 84.1807 80.996C84.1807 81.2749 84.2266 81.5101 84.319 81.7015C84.4124 81.8936 84.5374 82.0386 84.6945 82.1371C84.8527 82.2356 85.0291 82.2848 85.2238 82.2848C85.4185 82.2848 85.595 82.2356 85.752 82.1371C85.9102 82.0386 86.0352 81.8936 86.1276 81.7015C86.2205 81.5101 86.2675 81.2749 86.2675 80.996C86.2675 80.7171 86.2205 80.4813 86.1276 80.2899C86.0352 80.0978 85.9102 79.9528 85.752 79.8543C85.595 79.7558 85.4185 79.7066 85.2238 79.7066ZM134.083 82.2599H134.661C134.927 82.2599 135.148 82.2079 135.323 82.1055C135.497 82.0026 135.628 81.8565 135.714 81.6672C135.799 81.4774 135.843 81.2516 135.843 80.9893C135.843 80.7298 135.8 80.5057 135.715 80.3181C135.63 80.1294 135.504 79.9849 135.335 79.8842C135.167 79.7824 134.957 79.732 134.705 79.732H134.083V82.2599ZM111.847 81.3479H112.903L112.387 79.8953H112.362L111.847 81.3479ZM42.8744 81.084H43.5658C43.7389 81.084 43.8777 81.0541 43.9822 80.9943C44.0873 80.9346 44.1631 80.8538 44.2101 80.7519C44.2588 80.6496 44.2826 80.5333 44.2826 80.405C44.2826 80.276 44.2588 80.1604 44.2101 80.0591C44.1631 79.9573 44.0868 79.8776 43.9806 79.82C43.8749 79.7614 43.735 79.732 43.5602 79.732H42.8744V81.084ZM53.6376 80.996H54.329C54.501 80.996 54.6393 80.9705 54.7438 80.9202C54.85 80.8698 54.9258 80.7984 54.9728 80.706C55.0215 80.613 55.0453 80.5024 55.0453 80.3734C55.0453 80.2445 55.0215 80.1316 54.9728 80.0353C54.9247 79.939 54.8484 79.8643 54.7422 79.8117C54.6365 79.7586 54.4966 79.732 54.3229 79.732H53.6376V80.996ZM106.173 80.996H106.865C107.036 80.996 107.175 80.9705 107.28 80.9202C107.385 80.8698 107.462 80.7984 107.509 80.706C107.557 80.613 107.581 80.5024 107.581 80.3734C107.581 80.2445 107.557 80.1316 107.509 80.0353C107.461 79.939 107.384 79.8643 107.278 79.8117C107.172 79.7586 107.032 79.732 106.858 79.732H106.173V80.996ZM15.9274 78.1328C16.1144 78.1328 16.2792 78.1732 16.4222 78.254C16.5652 78.3347 16.6768 78.4515 16.7565 78.6048C16.8362 78.757 16.8759 78.9413 16.8759 79.1576V79.6584H17.7893V80.2539H14.973V79.1421C14.973 78.9285 15.0141 78.7465 15.0956 78.5959C15.1763 78.4454 15.2888 78.3309 15.4326 78.2523C15.5756 78.1726 15.7405 78.1328 15.9274 78.1328ZM15.9274 78.7459C15.834 78.7459 15.7524 78.7647 15.6828 78.8024C15.6122 78.8389 15.5576 78.8953 15.5191 78.9706C15.4797 79.0458 15.4602 79.141 15.4602 79.2561V79.6584H16.399V79.2534C16.399 79.1394 16.3794 79.0447 16.3401 78.9706C16.2998 78.8953 16.2443 78.8389 16.1737 78.8024C16.1022 78.7647 16.02 78.7459 15.9274 78.7459ZM17.7893 73.8573L16.7911 74.3902V74.8257H17.7893V75.4217H14.973V74.31C14.973 74.0969 15.0115 73.9154 15.0875 73.7649C15.1627 73.6138 15.2694 73.4987 15.4078 73.4196C15.5452 73.3399 15.7069 73.3006 15.8929 73.3006C16.0798 73.3006 16.241 73.341 16.3757 73.4212C16.5095 73.502 16.6121 73.6193 16.6836 73.7721C16.6875 73.7804 16.6907 73.7892 16.6944 73.7975L17.7893 73.1999V73.8573ZM15.8929 73.9137C15.7996 73.9137 15.7209 73.9326 15.6568 73.9702C15.5927 74.0067 15.544 74.0637 15.511 74.1395C15.4771 74.2148 15.4602 74.3094 15.4602 74.424V74.8257H16.3125V74.4212C16.3125 74.3078 16.2967 74.2131 16.2656 74.1379C16.2344 74.0632 16.1879 74.0067 16.1257 73.9702C16.0633 73.9326 15.9854 73.9137 15.8929 73.9137ZM17.7887 70.5552H14.973V68.6566H15.464V69.9598H16.1349V68.7545H16.6258V69.9598H17.2983V68.651H17.7887V70.5552ZM17.7887 63.3828H15.956V63.4066L17.7752 64.1354V64.5289L15.9496 65.2577V65.2809H17.7887V65.8587H14.973V65.1243L16.8651 64.3485V64.3153L14.973 63.54V62.8051H17.7887V63.3828ZM33.31 63.4902H145.794V33.5966H33.31V63.4902ZM17.7887 59.9906H14.973V59.3946H17.7887V59.9906ZM16.8019 54.2448C17.0072 54.2448 17.187 54.2935 17.3409 54.392C17.4949 54.4888 17.6151 54.6255 17.7012 54.8004C17.7864 54.9752 17.8287 55.18 17.8287 55.4124C17.8287 55.6465 17.7864 55.8507 17.7012 56.0261C17.6151 56.201 17.4949 56.3371 17.3409 56.4345C17.187 56.5319 17.0072 56.5806 16.8019 56.5806H14.973V55.9852H16.7511C16.8582 55.9852 16.9535 55.9614 17.0368 55.9149C17.1203 55.8667 17.1858 55.7998 17.2335 55.7134C17.2811 55.6277 17.3047 55.5269 17.3048 55.4124C17.3048 55.2973 17.2811 55.1966 17.2335 55.1114C17.1858 55.025 17.1203 54.9586 17.0368 54.9116C16.9535 54.864 16.8582 54.8402 16.7511 54.8402H14.973V54.2448H16.8019ZM68.7709 42.4997C68.8373 42.384 68.9036 42.2352 69.0856 42.3176C69.2183 42.384 69.2183 42.5501 69.1193 42.7327C68.887 43.1477 68.6376 43.5633 68.3721 43.9617C67.4263 45.4393 66.4639 46.8836 65.5181 48.3446C65.4518 48.411 65.4186 48.5277 65.3356 48.66C66.2482 48.6766 67.1111 48.6932 67.9573 48.9588V49.0247C67.5259 49.0413 67.1276 49.1243 66.6968 49.1409C66.2156 49.1741 65.7338 49.1746 65.2361 49.1746C65.0369 49.1746 64.9208 49.2576 64.8046 49.4237C63.6929 51.0838 62.548 52.7606 61.4202 54.4202C61.1879 54.7522 60.9219 55.0848 60.6896 55.4168C60.5408 55.6327 60.3743 55.6991 60.2256 55.5994C60.0762 55.5164 60.0591 55.3504 60.1918 55.1014C60.308 54.8026 60.5071 54.5867 60.7228 54.3543C61.0712 54.0057 61.3533 53.5907 61.6354 53.1922C62.4982 51.9305 63.3279 50.6688 64.1741 49.4237C64.2073 49.3573 64.241 49.2903 64.3069 49.2078C64.1913 49.1912 64.1243 49.1746 64.058 49.1746C63.4274 49.1746 62.7969 49.1912 62.1498 49.1746C61.9507 49.1746 61.8179 49.2576 61.735 49.4237C61.287 50.0877 60.8389 50.785 60.3743 51.4324C60.1089 51.8475 59.777 52.1795 59.4783 52.5448C59.3456 52.744 59.1962 52.91 59.0635 53.076C58.9313 52.9764 59.0137 52.843 59.0635 52.76C59.329 52.3123 59.5613 51.8475 59.8434 51.4158C60.2914 50.702 60.7394 50.0379 61.204 49.3407C61.2206 49.3075 61.2206 49.2737 61.2704 49.2078C61.1708 49.2078 61.121 49.1912 61.0381 49.1912C59.9761 49.1912 58.9142 49.1912 57.8528 49.2078C56.3096 49.2576 54.766 49.3075 53.2062 49.3573C52.6753 49.3573 52.1775 49.4071 51.6465 49.4237C51.5303 49.4237 51.3318 49.4397 51.3312 49.2576C51.3152 49.075 51.4811 49.0252 51.6304 49.0086C52.0447 48.9754 52.4595 48.8924 52.8412 48.8924C54.4839 48.826 56.11 48.7756 57.7195 48.7258C58.9308 48.6926 60.1586 48.6766 61.3699 48.6766C61.5856 48.6766 61.7184 48.5936 61.8179 48.411C62.6973 47.1326 63.5934 45.8543 64.4728 44.5594C64.7715 44.161 65.0369 43.762 65.3688 43.3469C65.4352 43.2307 65.5353 43.0979 65.767 43.1643C65.7172 43.3137 65.6841 43.4465 65.6011 43.5462C65.2361 44.1272 64.8544 44.7088 64.4728 45.2893C63.7759 46.3518 63.0458 47.4149 62.3489 48.4774C62.3323 48.5272 62.2991 48.5609 62.2659 48.66H64.4562C64.6221 48.66 64.7051 48.593 64.8046 48.4442C65.6675 47.1824 66.5137 45.9041 67.3599 44.6092C67.8245 43.9285 68.3063 43.2136 68.7709 42.4997ZM108.847 41.9524C108.996 41.9026 109.112 41.9031 109.212 42.0022C109.311 42.1018 109.295 42.2346 109.212 42.3508C108.996 42.6165 108.813 42.8821 108.564 43.1145C107.652 43.9944 106.623 44.7586 105.561 45.4393C104.898 45.8709 104.35 46.4188 103.853 47.033C102.641 48.4442 101.529 49.9715 100.5 51.5321C100.119 52.1297 99.804 52.7772 99.4721 53.3914C99.4058 53.5409 99.3554 53.7235 99.2896 53.9227C99.273 54.1385 99.3726 54.3045 99.5883 54.3543C99.7868 54.4041 99.9533 54.4368 100.136 54.4202C100.932 54.3704 101.728 54.3377 102.525 54.2215C104.284 53.9725 106.026 53.6571 107.785 53.3914C108.979 53.1922 110.191 53.1092 111.402 53.0262C111.634 53.0262 111.866 53.0428 112.115 53.0926C112.248 53.1092 112.348 53.1756 112.298 53.408C111.518 53.491 110.738 53.5408 109.942 53.6239C109.228 53.6737 108.482 53.7733 107.785 53.8563C106.706 54.0057 105.644 54.2049 104.582 54.3709C103.537 54.5369 102.475 54.6864 101.38 54.8026C101.123 54.8358 100.857 54.8479 100.592 54.8524H99.7044C99.0241 54.7694 98.7089 54.3377 98.8914 53.6903C99.0241 53.2752 99.1901 52.8934 99.4052 52.5116C100.119 51.2166 100.965 50.0213 101.845 48.826C102.227 48.328 102.608 47.8797 102.939 47.3817C103.022 47.3153 103.056 47.2323 103.072 47.116C102.873 47.2489 102.641 47.3817 102.425 47.5145C101.447 48.1287 100.467 48.7264 99.455 49.3407C99.1065 49.5399 98.7083 49.6893 98.3101 49.8548C98.2105 49.9046 98.0778 49.9378 97.929 49.8055C97.9948 49.7557 98.0452 49.6893 98.1115 49.6561C99.82 48.8094 101.414 47.7137 103.04 46.701C103.952 46.1532 104.699 45.4227 105.445 44.659C106.241 43.8289 107.088 43.0315 108.05 42.3674C108.233 42.2346 108.432 42.135 108.631 42.0188C108.714 41.9856 108.797 41.969 108.847 41.9524ZM118.951 42.8987C119.017 42.7659 119.183 42.617 119.316 42.7327C119.365 42.7659 119.382 42.9153 119.382 42.9983C119.366 43.0813 119.266 43.1809 119.233 43.2473C118.735 43.928 118.967 43.6961 118.321 44.6424C119.266 44.8084 121.407 44.7752 123.083 44.5926C123.614 44.5428 124.095 44.493 124.41 44.5096C124.957 44.5428 124.874 44.7918 124.41 44.8914C123.198 45.1073 119.084 45.0741 118.038 45.0408C117.275 46.0037 116.362 47.4481 115.881 48.3612C115.483 49.1414 114.936 50.4524 116.014 50.0047C116.495 49.8221 117.308 49.2742 117.822 48.8426C117.91 48.7845 117.973 48.7137 118.054 48.6633C118.104 48.5737 118.209 48.5045 118.383 48.494C118.765 48.4442 118.814 48.6096 119.014 48.2449C119.661 47.1824 120.341 46.3856 121.171 45.5555C121.287 45.4393 121.403 45.3231 121.536 45.2401C121.619 45.1737 121.685 45.1405 121.768 45.0906C122.033 45.0076 122.299 45.2567 122.249 45.6053C122.216 45.8211 122.166 46.0369 122.067 46.2029C121.585 47.0164 121.021 47.7303 120.324 48.2449C120.192 48.3612 120.042 48.4436 119.827 48.1785C120.54 47.5145 121.237 46.8001 121.718 45.8206C121.287 45.9871 119.827 47.7469 119.412 48.5604C120.49 48.743 121.984 48.6268 122.896 48.4774C122.941 48.4718 122.983 48.4724 123.021 48.4851C123.234 48.1055 123.408 47.6423 123.662 47.2987C123.877 47.0164 124.408 47.3153 124.06 47.7796C123.844 48.1282 123.612 48.4608 123.396 48.826C122.733 50.1868 124.574 49.225 124.923 48.8426C125.371 48.3612 125.67 48.909 125.288 49.1082C124.807 49.3739 124.309 49.6395 123.761 49.7723C123.595 49.7889 123.396 49.8055 123.23 49.7723C122.932 49.7225 122.766 49.4397 122.816 49.158C122.816 49.0872 122.818 49.0108 122.828 48.9356C122.173 48.8946 121.59 48.9151 121.038 49.0418C121.104 49.7385 120.789 50.3533 120.491 50.801C119.794 51.8137 118.931 52.661 117.935 53.2752C117.769 53.3582 117.57 53.4246 117.354 53.491C116.956 53.5569 116.675 53.2083 116.74 52.7274C116.79 52.5448 116.84 52.3621 116.923 52.1961C117.437 51.1336 117.985 50.0047 118.383 49.158C118.309 49.1547 118.244 49.1326 118.191 49.0983C117.782 49.4214 116.811 50.0888 116.047 50.3533C114.774 50.7922 114.925 49.7092 115.192 48.9284C115.076 48.9489 114.962 48.9655 114.836 48.9754C114.421 49.0584 114.006 49.1082 113.608 49.1912C113.491 49.2078 113.392 49.2576 113.309 49.3573C112.845 49.7889 112.612 50.0877 112.197 50.2205C111.6 50.4026 110.986 50.0047 111.8 48.7098C112.082 48.2616 112.496 47.9129 112.928 47.5643C113.11 47.4315 113.293 47.3153 113.558 47.2987C113.923 47.2655 114.139 47.4315 114.123 47.7967C114.123 47.9627 114.023 48.1619 113.99 48.3612C113.94 48.4608 113.89 48.5604 113.824 48.7098C114.089 48.66 114.338 48.6434 114.57 48.5936C114.753 48.5604 115.052 48.5266 115.251 48.494C115.298 48.494 115.331 48.4945 115.361 48.4967C115.882 47.2876 116.854 46.0198 117.458 45.0574C116.728 45.074 115.915 45.0906 115.301 45.0906C114.787 45.1571 114.736 44.9252 114.77 44.8582C114.836 44.7586 114.952 44.6258 115.417 44.659C116.147 44.7254 116.96 44.7254 117.723 44.6258C117.756 44.6092 117.79 44.576 117.806 44.5428C118.42 43.6795 118.321 43.7288 118.951 42.8987ZM120.606 49.0584C120.042 49.1746 119.113 48.9422 118.881 49.241C118.698 49.474 118.333 50.3196 118.201 50.5692C117.885 51.2493 117.587 51.9471 117.255 52.6278C117.222 52.6942 117.222 52.8104 117.205 52.8762C117.205 52.926 117.238 52.9432 117.255 52.9598C117.404 52.8934 117.587 52.8602 117.736 52.7938C118.798 52.1297 119.661 51.1829 120.391 50.0379C120.474 49.8713 120.606 49.3905 120.606 49.0584ZM17.7887 48.9544H15.956V48.9776L17.7752 49.7064V50.0999L15.9496 50.8293V50.8525H17.7887V51.4302H14.973V50.6959L16.8651 49.92V49.8868L14.973 49.111V48.3767H17.7887V48.9544ZM84.6514 46.5682C84.7509 46.5516 84.8339 46.5184 84.8837 46.5516C84.9827 46.5848 85.0988 46.6346 85.1486 46.7176C85.2316 46.8006 85.1818 46.95 85.0988 47.033C85.0159 47.0994 84.9495 47.1824 84.8499 47.2323C84.0867 47.7469 83.3074 48.2782 82.5275 48.7762C82.0961 49.075 81.6309 49.3739 81.1829 49.6561C81.1503 49.6727 81.1331 49.7059 81.1165 49.8055C81.4318 49.7723 81.7476 49.7557 82.0463 49.6893C82.8593 49.6063 87.1398 49.3074 87.9528 49.2078C88.2847 49.1912 88.6165 49.158 88.8986 49.4735C88.7659 49.6229 88.5999 49.6395 88.4346 49.6727C87.4882 49.7889 83.0911 50.0711 82.1287 50.1707C81.5314 50.2537 80.9838 50.3534 80.387 50.4198C80.1049 50.4696 79.955 50.4358 79.8887 50.2869C79.8228 50.1375 79.8887 49.9549 80.1044 49.8055C80.4694 49.5399 80.8511 49.2908 81.2493 49.0418C82.1121 48.4774 82.9749 47.8963 83.8544 47.3485C83.9041 47.3153 83.9711 47.2323 84.054 47.1824C84.0374 47.1658 84.0369 47.116 84.0203 47.0994C83.4727 47.1824 82.9252 47.2323 82.3776 47.3319C81.5153 47.4979 80.9008 48.0291 80.4196 48.7596C80.408 48.7812 80.3948 48.8005 80.3826 48.8188C80.3638 48.9046 80.2891 48.997 80.126 49.0584C79.7111 49.2908 79.2792 49.4901 78.7985 49.5399C78.2012 49.6063 77.9025 49.3235 77.8859 48.743C77.8859 48.6102 77.9025 48.51 77.9031 48.3778C77.9031 47.9129 77.9689 47.6639 77.5209 47.9627C77.0729 48.2117 76.5253 48.6102 76.0773 48.8592C75.9279 48.9583 75.7454 49.0252 75.5795 49.0584C75.2316 49.158 75.0153 49.0247 74.8992 48.6766C74.7499 48.3114 74.866 48.1121 74.4683 48.3944C74.0369 48.7264 73.5718 49.2908 73.1404 49.6395C73.0408 49.7225 72.9578 49.8055 72.8417 49.8719C72.6431 49.9378 72.4932 49.8221 72.5264 49.6063C72.543 49.5067 72.5762 49.4403 72.6426 49.3407C72.6525 49.3202 72.663 49.2997 72.673 49.2792C71.9711 49.6572 70.9556 49.9162 70.9556 49.0418C70.9556 48.8592 70.9888 48.6766 71.022 48.4608C70.4578 48.8094 69.9269 49.1746 69.3461 49.4735C69.2134 49.5731 69.0308 49.5897 68.8815 49.6063C68.6658 49.6395 68.4667 49.5725 68.3671 49.3905C68.251 49.1912 68.3008 49.0086 68.4169 48.8426C68.5165 48.7098 68.6 48.6096 68.7322 48.494C69.3129 47.9959 69.9932 47.7303 70.7897 47.7967C70.9058 47.8133 71.0386 47.7796 71.1381 47.6639C71.2875 47.5145 71.4368 47.3479 71.5862 47.199C71.6354 47.1326 71.7023 47.0496 71.7687 47.033C71.835 47.0164 71.9512 47.0164 72.0176 47.0496C72.0673 47.116 72.1005 47.1996 72.0839 47.2987C72.0673 47.4149 72.0176 47.5145 71.9512 47.6307C71.8179 47.9135 70.9562 49.5061 71.9678 49.2078C72.2333 49.1414 72.5485 48.9422 72.8638 48.7928C72.8887 48.7828 72.9147 48.7679 72.9418 48.753C73.095 48.4558 73.2521 48.157 73.4224 47.8465C73.439 47.7801 73.4728 47.6805 73.5225 47.6473C73.5889 47.5975 73.6885 47.5477 73.7548 47.5809C73.8041 47.598 73.8704 47.6971 73.8704 47.7796C73.8372 47.8958 73.7875 47.9959 73.7548 48.0955C73.6713 48.2616 73.3892 48.7596 73.3727 48.9588C73.5552 48.8426 73.9368 48.3612 74.1359 48.2283C74.2687 48.1287 74.4014 48.0623 74.5341 47.9959C74.8992 47.8465 75.1652 47.9793 75.298 48.3612C75.314 48.4276 75.3306 48.5106 75.3472 48.577C75.5131 48.66 75.6459 48.577 75.7786 48.5106C76.2427 48.245 76.6746 47.9793 77.1392 47.7469C77.3212 47.6473 77.5375 47.5477 77.7366 47.5145C78.0518 47.4481 78.2841 47.5809 78.3339 47.9129C78.3837 48.1121 78.3837 48.3446 78.3505 48.5438C78.3007 49.0413 78.5336 49.1575 78.9644 49.0247C79.2609 48.9588 79.6547 48.7635 79.9362 48.6628C79.9423 48.6511 79.9479 48.6384 79.955 48.6268C80.3699 47.7967 81.0502 47.2156 82.0126 46.9666C82.4274 46.867 82.8588 46.784 83.3068 46.7342C83.7548 46.6512 84.2034 46.618 84.6514 46.5682ZM112.23 48.7928C111.468 49.7053 112.447 50.1536 112.878 49.2078C112.53 49.2078 112.297 49.1077 112.23 48.7928ZM92.7365 47.033C92.8029 47.0164 92.9191 47.0164 92.9854 47.0496C93.0352 47.116 93.0684 47.1996 93.0518 47.2987C93.0352 47.4149 92.9854 47.5145 92.9191 47.6307C92.7858 47.9135 91.924 49.5061 92.9357 49.2078C93.2011 49.1414 93.5164 48.9422 93.8317 48.7928C93.9146 48.759 94.0142 48.6766 94.1137 48.6932C94.2299 48.7264 94.3129 48.8592 94.1635 48.9256C93.6657 49.3905 91.924 50.1868 91.9235 49.0418C91.9235 48.8592 91.9567 48.6766 91.9898 48.4608C91.4257 48.8094 90.8947 49.1746 90.314 49.4735C90.1812 49.5731 89.9987 49.5897 89.8494 49.6063C89.6337 49.6395 89.4345 49.5725 89.335 49.3905C89.2194 49.1912 89.2692 49.0086 89.3848 48.8426C89.4843 48.7098 89.5679 48.6096 89.7006 48.494C90.2808 47.9959 90.9617 47.7303 91.7576 47.7967C91.8737 47.8133 92.0065 47.7796 92.106 47.6639C92.2553 47.5145 92.4047 47.3479 92.554 47.199C92.6038 47.1326 92.6702 47.0496 92.7365 47.033ZM70.7067 48.1287C70.043 48.1785 69.2134 48.5604 68.8317 49.1248C69.4789 49.0086 70.2587 48.5604 70.7067 48.1287ZM91.6746 48.1287C91.0109 48.1785 90.1812 48.5604 89.7996 49.1248C90.4467 49.0086 91.2266 48.5604 91.6746 48.1287ZM113.641 47.6971C113.227 47.8299 112.96 48.0623 112.778 48.3778C112.728 48.4602 112.712 48.5604 112.828 48.6434C112.96 48.7762 113.259 48.759 113.343 48.577C113.475 48.3944 113.575 48.1614 113.641 47.9627C113.674 47.929 113.641 47.8294 113.641 47.6971ZM124.89 45.9705C125.072 45.9705 125.172 46.1033 125.139 46.2528C125.089 46.4188 124.856 46.6512 124.641 46.784C124.326 46.9661 124.209 46.9495 124.292 46.5344C124.326 46.2694 124.508 45.9705 124.89 45.9705ZM108.366 42.6663C107.652 43.1643 107.005 43.7127 106.424 44.327C107.071 43.9783 108.199 42.9983 108.366 42.6663ZM0.553649 33.0432H32.7569V0.553386H0.553649V33.0432ZM33.31 33.0432H145.794V0.553386H33.31V33.0432ZM27.4226 27.5078L27.0315 27.899L5.94362 6.80006L6.33466 6.40882L27.4226 27.5078ZM60.3389 19.5377H60.3948L62.0353 15.5289H62.7333V20.3586H62.1863V16.6892H62.1393L60.631 20.3586H60.1028L58.5945 16.6892H58.5469V20.3586H58.0005V15.5289H58.6985L60.3389 19.5377ZM70.8007 16.0477H68.4722V17.6797H70.6498V18.1985H68.4722V19.8398H70.8384V20.3586H67.8876V15.5289H70.8007V16.0477ZM78.7498 16.0477H76.4213V17.6797H78.5988V18.1985H76.4213V19.8398H78.7875V20.3586H75.8361V15.5289H78.7498V16.0477ZM86.6801 16.0477H84.3699V17.6797H86.4628V18.1985H84.3699V20.3586H83.7852V15.5289H86.6801V16.0477ZM92.2476 19.8398H94.4915V20.3586H91.663V15.5289H92.2476V19.8398ZM102.292 16.0477H99.9633V17.6797H102.141V18.1985H99.9633V19.8398H102.33V20.3586H99.3792V15.5289H102.292V16.0477ZM110.241 16.0477H107.912V17.6797H110.09V18.1985H107.912V19.8398H110.279V20.3586H107.328V15.5289H110.241V16.0477ZM118.633 16.0477H117.115V20.3586H116.531V16.0477H115.013V15.5289H118.633V16.0477Z" fill="black"/>
</svg>
