<svg width="52" height="51" viewBox="0 0 52 51" fill="none" xmlns="http://www.w3.org/2000/svg">
<path d="M51.734 32.3175C47.6371 43.086 37.6028 50.705 25.8661 50.7051C14.1297 50.7048 4.09694 43.0856 0 32.3175L5.8795 29.8542C9.04872 38.1847 16.807 44.0627 25.8661 44.063C34.9253 44.063 42.6851 38.185 45.8545 29.8542L51.734 32.3175ZM25.8661 0C37.7226 0.0001 47.3355 9.79872 47.3359 21.8865C47.3359 24.6961 46.8154 27.3825 45.8693 29.8505L39.562 27.3383C37.4187 32.929 32.0849 36.871 25.8661 36.8711C19.6476 36.8707 14.3152 32.9287 12.1719 27.3383L5.86469 29.8505C4.91865 27.3825 4.39804 24.6961 4.39804 21.8865C4.39841 9.79885 14.0098 0.000425 25.8661 0Z" fill="#000000"/>
</svg>
