<svg width="351" height="351" viewBox="0 0 351 351" fill="none" xmlns="http://www.w3.org/2000/svg">
<path d="M64.3482 268.476V267.018C64.3482 266.742 64.5721 266.518 64.8482 266.518C65.1244 266.518 65.3482 266.742 65.3482 267.018V268.476C65.3482 268.752 65.1244 268.976 64.8482 268.976C64.5721 268.976 64.3482 268.752 64.3482 268.476Z" fill="black"/>
<path d="M76.5754 284.069C77.027 284.077 77.4728 284.173 77.887 284.353C78.3011 284.533 78.6758 284.794 78.9895 285.119C79.303 285.444 79.5497 285.827 79.7151 286.247C79.8806 286.667 79.9613 287.116 79.9534 287.568C79.9454 288.02 79.8493 288.465 79.6692 288.88C79.4891 289.294 79.2284 289.668 78.9036 289.982L78.8948 289.991L73.6516 294.797C72.5247 296.064 70.9353 296.684 69.2229 296.684H63.3899C61.6623 296.684 60.0585 296.053 58.9299 294.763L57.0344 292.632C56.9446 292.53 56.8336 292.45 56.7102 292.394C56.5868 292.339 56.4529 292.309 56.3176 292.309H54.6399C54.3638 292.309 54.1399 292.085 54.1399 291.809C54.14 291.533 54.3638 291.309 54.6399 291.309H56.3186C56.595 291.309 56.8683 291.369 57.1204 291.482C57.3725 291.596 57.5979 291.761 57.7815 291.967L59.6799 294.102L59.6829 294.105C60.5959 295.149 61.9092 295.684 63.3899 295.684H69.2229C70.7035 295.684 72.0169 295.149 72.9299 294.105C72.942 294.091 72.9555 294.078 72.969 294.066L78.2092 289.262C78.4397 289.04 78.6244 288.774 78.7522 288.48C78.8799 288.187 78.9487 287.871 78.9543 287.55C78.96 287.23 78.9017 286.912 78.7844 286.614C78.6671 286.316 78.4923 286.044 78.2698 285.813C78.0473 285.583 77.7813 285.398 77.4875 285.27C77.1939 285.143 76.878 285.074 76.5579 285.068C76.2376 285.062 75.9194 285.121 75.6213 285.238C75.3233 285.355 75.051 285.53 74.8206 285.753C74.8147 285.758 74.8081 285.764 74.802 285.769L70.136 289.852C69.9282 290.034 69.6118 290.013 69.4299 289.805C69.2483 289.598 69.27 289.282 69.4778 289.1L74.1438 285.016C74.4649 284.711 74.8425 284.47 75.2551 284.307C75.6753 284.142 76.124 284.061 76.5754 284.069Z" fill="black"/>
<path d="M70.1819 287.435C70.1819 286.794 69.927 286.179 69.4739 285.726C69.0207 285.273 68.4058 285.018 67.7649 285.018H50.2649C49.9888 285.018 49.7649 284.794 49.7649 284.518C49.7649 284.242 49.9888 284.018 50.2649 284.018H67.7649C68.6711 284.018 69.5402 284.378 70.1809 285.019C70.8216 285.66 71.1819 286.529 71.1819 287.435C71.1818 288.341 70.8216 289.21 70.1809 289.851C69.5402 290.491 68.671 290.851 67.7649 290.851H64.8479C64.5719 290.851 64.3479 290.627 64.3479 290.351C64.3481 290.075 64.572 289.851 64.8479 289.851H67.7649C68.4058 289.851 69.0207 289.597 69.4739 289.144C69.927 288.691 70.1818 288.076 70.1819 287.435Z" fill="black"/>
<path d="M76.5146 278.184C76.7907 278.184 77.0146 278.408 77.0146 278.684C77.0146 278.961 76.7907 279.184 76.5146 279.184H53.1816C52.9054 279.184 52.6816 278.961 52.6816 278.684C52.6816 278.408 52.9054 278.184 53.1816 278.184H76.5146Z" fill="black"/>
<path d="M74.5569 278.684C74.5568 276.11 73.5336 273.641 71.7131 271.82C69.8925 269.999 67.423 268.976 64.8482 268.976C62.2735 268.976 59.8042 269.999 57.9836 271.82C56.1631 273.641 55.14 276.109 55.1399 278.684C55.1399 278.96 54.916 279.184 54.6399 279.184C54.3638 279.184 54.1399 278.96 54.1399 278.684C54.14 275.844 55.2685 273.121 57.2766 271.113C59.2847 269.105 62.008 267.976 64.8479 267.976C67.6879 267.976 70.412 269.105 72.4202 271.113C74.4282 273.121 75.5568 275.844 75.5569 278.684C75.5569 278.96 75.3329 279.184 75.0569 279.184C74.7807 279.184 74.5569 278.96 74.5569 278.684Z" fill="black"/>
<path d="M54.1399 293.268V284.518C54.1399 284.242 54.3638 284.018 54.6399 284.018C54.916 284.018 55.1399 284.242 55.1399 284.518V293.268C55.1399 293.787 54.9338 294.285 54.5667 294.653C54.1995 295.02 53.7011 295.226 53.1819 295.226H50.2649C49.9888 295.226 49.7649 295.002 49.7649 294.726C49.7651 294.45 49.9889 294.226 50.2649 294.226H53.1819C53.4359 294.226 53.68 294.125 53.8596 293.946C54.0392 293.766 54.1399 293.522 54.1399 293.268Z" fill="black"/>
<path d="M293.4 275.101C293.4 274.847 293.299 274.603 293.119 274.424C292.94 274.244 292.696 274.143 292.442 274.143C289.365 274.143 285.624 272.333 283.017 270.055C282.799 269.869 282.521 269.767 282.234 269.767C281.946 269.767 281.668 269.87 281.449 270.056C278.857 272.319 275.101 274.143 272.025 274.143C271.771 274.143 271.527 274.244 271.347 274.424C271.167 274.603 271.067 274.847 271.067 275.101V285.309C271.067 288.823 272.291 291.432 274.237 293.426C276.074 295.307 278.575 296.659 281.356 297.676L281.915 297.875L281.927 297.879C282.132 297.955 282.357 297.958 282.565 297.888C285.562 296.844 288.274 295.437 290.232 293.428C292.176 291.433 293.4 288.823 293.4 285.309V275.101ZM294.4 285.309C294.4 289.087 293.072 291.946 290.948 294.126C288.837 296.291 285.963 297.764 282.894 298.834L282.89 298.836C282.463 298.98 282 298.973 281.577 298.816C278.505 297.754 275.631 296.286 273.521 294.125C271.395 291.947 270.067 289.087 270.067 285.309V275.101C270.067 274.582 270.273 274.084 270.64 273.717C271.007 273.349 271.505 273.143 272.025 273.143C274.78 273.143 278.313 271.468 280.796 269.3L280.8 269.297C281.2 268.955 281.708 268.767 282.234 268.767C282.693 268.767 283.14 268.911 283.512 269.176L283.666 269.297L283.671 269.3C286.168 271.483 289.686 273.143 292.442 273.143C292.961 273.143 293.459 273.349 293.826 273.717C294.194 274.084 294.4 274.582 294.4 275.101V285.309Z" fill="black"/>
<path d="M278.852 54.5682C279.501 54.5547 280.147 54.6712 280.751 54.9109C281.355 55.1507 281.906 55.5092 282.369 55.9646C282.833 56.42 283.201 56.9637 283.451 57.5633C283.702 58.1624 283.83 58.8056 283.828 59.4549V78.4139L283.819 78.7381C283.78 79.4926 283.605 80.2348 283.304 80.9295C282.959 81.7233 282.455 82.4385 281.823 83.0301C281.191 83.6217 280.444 84.0781 279.629 84.3699C278.814 84.6616 277.948 84.7834 277.084 84.7273C276.22 84.6713 275.377 84.4384 274.607 84.0437C273.836 83.649 273.155 83.1007 272.605 82.4324C272.055 81.7641 271.648 80.9899 271.408 80.158C271.199 79.4316 271.121 78.6745 271.179 77.9227C270.404 77.43 269.744 76.7747 269.246 75.9998C268.689 75.1315 268.353 74.1402 268.266 73.1121C268.179 72.0839 268.344 71.0499 268.748 70.1004C269.1 69.2745 269.622 68.5345 270.279 67.9275C269.936 67.1789 269.741 66.3694 269.707 65.5437C269.668 64.5836 269.848 63.6271 270.234 62.7469C270.619 61.8667 271.199 61.0853 271.931 60.4627C272.563 59.9247 273.295 59.5177 274.082 59.2625C274.101 58.7472 274.201 58.237 274.38 57.7518C274.605 57.1423 274.951 56.5844 275.395 56.1102C275.839 55.6359 276.374 55.2547 276.967 54.99C277.561 54.7253 278.202 54.5817 278.852 54.5682ZM278.872 55.5682C278.356 55.5789 277.846 55.6927 277.374 55.9031C276.902 56.1135 276.477 56.4168 276.124 56.7937C275.771 57.1706 275.498 57.6142 275.319 58.0984C275.139 58.583 275.059 59.0989 275.082 59.615C275.093 59.8512 274.936 60.0628 274.707 60.1219C273.924 60.3234 273.196 60.7002 272.579 61.2244C271.963 61.7488 271.474 62.4069 271.15 63.1482C270.825 63.8895 270.673 64.6952 270.706 65.5037C270.739 66.3121 270.956 67.1028 271.339 67.8152C271.453 68.0265 271.4 68.289 271.214 68.4402C270.54 68.9881 270.009 69.6924 269.669 70.492C269.329 71.2916 269.189 72.1623 269.262 73.0281C269.335 73.8939 269.619 74.7285 270.088 75.4598C270.557 76.1911 271.199 76.7973 271.955 77.2244C272.132 77.3245 272.231 77.5217 272.205 77.7234C272.112 78.4464 272.168 79.1811 272.369 79.8816C272.571 80.5822 272.914 81.2339 273.377 81.7967C273.84 82.3595 274.414 82.8217 275.063 83.1541C275.711 83.4865 276.422 83.6821 277.15 83.7293C277.877 83.7764 278.606 83.6741 279.292 83.4285C279.978 83.1828 280.608 82.7988 281.14 82.3006C281.672 81.8024 282.097 81.2006 282.387 80.532C282.677 79.8637 282.827 79.1425 282.828 78.4139V59.4539C282.83 58.9374 282.728 58.4256 282.528 57.949C282.329 57.4723 282.037 57.0396 281.668 56.6775C281.3 56.3156 280.862 56.0312 280.382 55.8406C279.902 55.6501 279.389 55.5574 278.872 55.5682Z" fill="black"/>
<path d="M283.355 64.7894C283.631 64.8045 283.842 65.0401 283.827 65.3158C283.751 66.7102 283.263 68.051 282.425 69.1683C281.587 70.2857 280.436 71.1296 279.119 71.5931C278.858 71.6847 278.573 71.5479 278.481 71.2874C278.39 71.027 278.526 70.7413 278.787 70.6497C279.918 70.2519 280.905 69.5278 281.625 68.5687C282.344 67.6095 282.764 66.4583 282.829 65.2611C282.844 64.9854 283.079 64.7744 283.355 64.7894Z" fill="black"/>
<path d="M274.562 59.1374C274.838 59.1261 275.071 59.341 275.082 59.6169C275.108 60.2417 275.284 60.8514 275.596 61.3932C275.734 61.6325 275.651 61.938 275.412 62.0758C275.173 62.2137 274.868 62.1314 274.73 61.8923C274.337 61.2106 274.114 60.4439 274.082 59.6579C274.071 59.382 274.286 59.1487 274.562 59.1374Z" fill="black"/>
<path d="M271.509 67.0384C271.75 66.9044 272.054 66.9923 272.188 67.2337C272.322 67.4751 272.236 67.7794 271.994 67.9134C271.719 68.066 271.458 68.2416 271.214 68.4402C271 68.6145 270.685 68.5834 270.511 68.3695C270.336 68.1553 270.369 67.8397 270.583 67.6654C270.873 67.4296 271.182 67.2196 271.509 67.0384Z" fill="black"/>
<path d="M271.274 77.4148C271.409 77.1745 271.715 77.0888 271.955 77.2244C272.755 77.6757 273.659 77.9142 274.577 77.9138C274.853 77.9137 275.077 78.1369 275.077 78.4129C275.078 78.6889 274.854 78.9135 274.578 78.9138C273.487 78.9144 272.414 78.6325 271.463 78.0965C271.223 77.9607 271.138 77.6552 271.274 77.4148Z" fill="black"/>
<path d="M289.161 70.6217C289.437 70.6217 289.661 70.8456 289.661 71.1217C289.661 71.3979 289.437 71.6217 289.161 71.6217H283.328C283.052 71.6217 282.828 71.3979 282.828 71.1217C282.828 70.8456 283.052 70.6217 283.328 70.6217H289.161Z" fill="black"/>
<path d="M294.495 82.7884V81.3304C294.495 80.6895 294.24 80.0746 293.787 79.6214C293.334 79.1682 292.719 78.9134 292.078 78.9134H283.328C283.052 78.9134 282.828 78.69 282.828 78.4139C282.828 78.1377 283.052 77.9134 283.328 77.9134H292.078C292.984 77.9134 293.853 78.2736 294.494 78.9144C295.134 79.5551 295.495 80.4243 295.495 81.3304V82.7884C295.495 83.0644 295.271 83.2882 294.995 83.2884C294.719 83.2884 294.495 83.0646 294.495 82.7884Z" fill="black"/>
<path d="M294.995 63.3301C295.271 63.3302 295.495 63.554 295.495 63.8301C295.495 64.1061 295.271 64.3299 294.995 64.3301H283.328C283.052 64.3301 282.828 64.1062 282.828 63.8301C282.828 63.5539 283.052 63.3301 283.328 63.3301H294.995Z" fill="black"/>
<path d="M288.661 63.8304V59.4554C288.661 58.5492 289.021 57.6801 289.662 57.0394C290.303 56.3986 291.172 56.0384 292.078 56.0384C292.354 56.0386 292.578 56.2624 292.578 56.5384C292.578 56.8144 292.354 57.0382 292.078 57.0384C291.437 57.0384 290.822 57.2932 290.369 57.7464C289.916 58.1996 289.661 58.8145 289.661 59.4554V63.8304C289.661 64.1064 289.437 64.3304 289.161 64.3304C288.885 64.3304 288.661 64.1064 288.661 63.8304Z" fill="black"/>
<path d="M289.39 71.1221C289.39 70.9956 289.288 70.8928 289.161 70.8926C289.035 70.8926 288.932 70.9955 288.932 71.1221C288.932 71.2485 289.035 71.3506 289.161 71.3506C289.288 71.3504 289.39 71.2484 289.39 71.1221ZM290.39 71.1221C290.39 71.8007 289.84 72.3504 289.161 72.3506C288.483 72.3506 287.932 71.8008 287.932 71.1221C287.932 70.4432 288.483 69.8926 289.161 69.8926C289.84 69.8928 290.39 70.4433 290.39 71.1221Z" fill="black"/>
<path d="M292.307 56.5387C292.307 56.4123 292.205 56.3094 292.078 56.3092C291.952 56.3092 291.849 56.4122 291.849 56.5387C291.849 56.6651 291.952 56.7673 292.078 56.7673C292.204 56.7671 292.306 56.665 292.307 56.5387ZM293.307 56.5387C293.306 57.2173 292.757 57.7671 292.078 57.7673C291.399 57.7673 290.849 57.2174 290.849 56.5387C290.849 55.8599 291.399 55.3092 292.078 55.3092C292.757 55.3094 293.307 55.86 293.307 56.5387Z" fill="black"/>
<path d="M295.223 82.7887C295.223 82.6623 295.121 82.5594 294.995 82.5592C294.868 82.5592 294.765 82.6622 294.765 82.7887C294.766 82.9152 294.868 83.0173 294.995 83.0173C295.121 83.0171 295.223 82.915 295.223 82.7887ZM296.223 82.7887C296.223 83.4673 295.673 84.0171 294.995 84.0173C294.316 84.0173 293.766 83.4674 293.765 82.7887C293.765 82.1099 294.316 81.5592 294.995 81.5592C295.674 81.5594 296.223 82.11 296.223 82.7887Z" fill="black"/>
<path d="M295.223 63.8304C295.223 63.7039 295.121 63.6011 294.995 63.6009C294.868 63.6009 294.765 63.7038 294.765 63.8304C294.766 63.9568 294.868 64.0589 294.995 64.0589C295.121 64.0587 295.223 63.9567 295.223 63.8304ZM296.223 63.8304C296.223 64.509 295.673 65.0587 294.995 65.0589C294.316 65.0589 293.766 64.5091 293.765 63.8304C293.765 63.1516 294.316 62.6009 294.995 62.6009C295.674 62.6011 296.223 63.1517 296.223 63.8304Z" fill="black"/>
<path d="M77.4732 71.1091C77.4732 69.7744 76.3909 68.6921 75.0562 68.6921H54.6402C53.3055 68.6921 52.2232 69.7744 52.2232 71.1091V81.3171C52.2232 82.6518 53.3055 83.7341 54.6402 83.7341H75.0562C76.3909 83.7341 77.4732 82.6518 77.4732 81.3171V71.1091ZM78.4732 81.3171C78.4732 83.2041 76.9432 84.7341 75.0562 84.7341H54.6402C52.7532 84.7341 51.2232 83.2041 51.2232 81.3171V71.1091C51.2232 69.2221 52.7532 67.6921 54.6402 67.6921H75.0562C76.9432 67.6921 78.4732 69.2221 78.4732 71.1091V81.3171Z" fill="black"/>
<path d="M71.6396 68.1921V62.3591C71.6396 60.5578 70.924 58.8301 69.6503 57.5564C68.3767 56.2829 66.6496 55.5672 64.8485 55.5671C63.0473 55.5671 61.3195 56.2827 60.0458 57.5564C58.7721 58.8301 58.0566 60.5578 58.0566 62.3591V68.1921C58.0566 68.4683 57.8327 68.6921 57.5566 68.6921C57.2804 68.6921 57.0566 68.4683 57.0566 68.1921V62.3591C57.0566 60.2926 57.8776 58.3106 59.3388 56.8493C60.8 55.3881 62.7821 54.5671 64.8485 54.5671C66.9148 54.5672 68.8962 55.3883 70.3573 56.8493C71.8186 58.3106 72.6396 60.2926 72.6396 62.3591V68.1921C72.6396 68.4683 72.4157 68.6921 72.1396 68.6921C71.8636 68.6919 71.6396 68.4681 71.6396 68.1921Z" fill="black"/>
<path d="M315.129 147.334C268.794 100.999 193.67 100.999 147.334 147.334C100.999 193.669 100.999 268.794 147.334 315.129C193.67 361.464 268.794 361.464 315.129 315.129L315.706 315.706L314.607 316.791C268.239 361.998 194.223 361.998 147.855 316.791L146.757 315.706C100.103 269.052 100.103 193.411 146.757 146.757L147.855 145.672C194.591 100.106 269.417 100.467 315.706 146.757L316.79 147.856C362.357 194.591 361.996 269.416 315.706 315.706L315.129 315.129C361.464 268.794 361.464 193.669 315.129 147.334Z" fill="black"/>
<path d="M203.363 35.5679C157.027 -10.7673 81.9032 -10.7672 35.568 35.5679C-10.7671 81.903 -10.7671 157.027 35.568 203.362C81.9032 249.697 157.027 249.698 203.363 203.362L203.94 203.94L202.841 205.024C156.473 250.232 82.4563 250.232 36.089 205.024L34.9907 203.94C-11.6633 157.286 -11.6633 81.6445 34.9907 34.9905L36.089 33.9058C82.8244 -11.6607 157.65 -11.2991 203.94 34.9905L205.024 36.0894C250.591 82.8247 250.229 157.65 203.94 203.94L203.363 203.362C249.698 157.027 249.698 81.903 203.363 35.5679Z" fill="black"/>
<path d="M147.334 35.5677C100.999 81.9028 100.999 157.027 147.334 203.362C193.669 249.697 268.794 249.697 315.129 203.362C361.464 157.027 361.464 81.9028 315.129 35.5677L315.706 34.9903L316.791 36.0897C361.998 82.4572 361.999 156.474 316.791 202.841L315.706 203.94C269.052 250.594 193.411 250.594 146.757 203.94L145.672 202.841C100.106 156.106 100.467 81.2799 146.757 34.9903L147.856 33.9062C194.591 -11.6603 269.417 -11.2992 315.706 34.9903L315.129 35.5677C268.794 -10.7674 193.669 -10.7674 147.334 35.5677Z" fill="black"/>
<path d="M35.5679 147.334C-10.7673 193.669 -10.7672 268.793 35.5679 315.129C81.903 361.464 157.027 361.464 203.362 315.129C249.698 268.793 249.698 193.669 203.362 147.334L203.94 146.757L205.025 147.856C250.232 194.224 250.232 268.24 205.025 314.608L203.94 315.706C157.286 362.36 81.6446 362.36 34.9905 315.706L33.9058 314.608C-11.6607 267.872 -11.2991 193.046 34.9905 146.757L36.0894 145.672C82.8247 100.106 157.65 100.467 203.94 146.757L203.362 147.334C157.027 100.999 81.903 100.999 35.5679 147.334Z" fill="black"/>
<path d="M189.866 170.948C189.866 162.76 183.356 156.138 175.347 156.138C167.339 156.139 160.83 162.76 160.83 170.948C160.83 172.671 161.121 174.324 161.65 175.861V175.863L166.054 174.11L166.235 174.583C167.664 178.31 171.216 180.93 175.347 180.93C179.48 180.93 183.033 178.311 184.462 174.583L184.642 174.11L189.046 175.863L189.047 175.861C189.576 174.324 189.866 172.671 189.866 170.948ZM189.604 177.178C187.21 182.928 181.734 186.962 175.347 186.962C168.961 186.961 163.485 182.928 161.091 177.178L157.901 178.516C160.804 185.633 167.528 190.608 175.347 190.608C183.168 190.608 189.892 185.633 192.795 178.515L189.604 177.178ZM185.201 175.409C183.521 179.253 179.739 181.93 175.347 181.93C170.956 181.93 167.174 179.253 165.494 175.409L162.014 176.795C164.267 182.205 169.4 185.961 175.347 185.962C181.295 185.962 186.429 182.205 188.681 176.795L185.201 175.409ZM190.866 170.948C190.866 172.806 190.549 174.59 189.971 176.248L193.636 177.784L194.082 177.97L193.91 178.423C190.977 186.131 183.784 191.608 175.347 191.608C166.912 191.608 159.719 186.131 156.786 178.423L156.614 177.97L160.725 176.249C160.147 174.591 159.83 172.806 159.83 170.948C159.83 162.226 166.769 155.139 175.347 155.138C183.926 155.138 190.866 162.226 190.866 170.948Z" fill="black"/>
</svg>
