<svg width="367" height="98" viewBox="0 0 367 98" fill="none" xmlns="http://www.w3.org/2000/svg">
<path d="M300.776 86.5784L300.122 86.6543L300.641 91.1206L301.295 91.0447L301.321 91.2658L299.939 91.4261L296.657 88.3751L297.025 91.5409L297.68 91.4645L297.705 91.6856L296.053 91.8778L296.027 91.6567L296.682 91.5809L296.142 86.9345L296.599 86.7985L300.175 90.1054L299.778 86.6943L299.304 86.7494C299.188 86.7518 299.106 86.6865 299.057 86.5542L300.751 86.3574L300.776 86.5784ZM308.195 86.7843L307.537 86.8278L307.832 91.3143L308.49 91.2713L308.504 91.4934L306.039 91.6552L306.024 91.4332L306.681 91.3902L306.387 86.9032L305.952 86.932C305.836 86.9286 305.757 86.8592 305.715 86.7246L308.18 86.5628L308.195 86.7843ZM316.561 84.6281L316.105 84.8916L316.902 89.8798L316.374 90.1848L312.332 87.0701L312.118 87.1935C312.089 87.2099 312.062 87.2225 312.035 87.2314C311.968 87.2575 311.901 87.2134 311.836 87.0994L313.747 85.9963L313.858 86.1885L313.352 86.4808L314.677 87.5415L316.097 86.7221L315.819 85.0565L315.42 85.2871C315.391 85.3035 315.364 85.3161 315.337 85.3251C315.27 85.3511 315.203 85.307 315.138 85.193L316.45 84.4354L316.561 84.6281ZM314.886 87.7059L316.468 88.98L316.134 86.9856L314.886 87.7059ZM278.504 78.7C282.22 82.0919 286.623 84.7437 291.479 86.4232L290.971 87.892C285.912 86.1422 281.326 83.3798 277.456 79.8482L278.504 78.7ZM322.635 81.8274L321.994 82.2761L324.573 85.9593L324.688 85.8794C324.84 85.7724 324.95 85.6512 325.017 85.5173C325.112 85.3172 325.107 85.0385 325.005 84.6817L324.789 83.928L324.992 83.7864L325.975 85.2487L322.481 87.6958L321.443 86.2709L321.645 86.1293L322.28 86.5901C322.371 86.6534 322.452 86.7069 322.523 86.7509C322.86 86.9442 323.19 86.9275 323.514 86.7009L323.629 86.6209L321.049 82.9377L320.591 83.2588C320.49 83.3159 320.387 83.2975 320.281 83.2042L322.507 81.6453L322.635 81.8274ZM330.365 76.4198L329.86 76.8432L332.75 80.2877L333.255 79.8644L333.398 80.0348L331.291 81.8026C331.013 82.0355 330.733 82.1882 330.45 82.2609C329.952 82.3848 329.537 82.2494 329.206 81.8542C329.071 81.6944 328.977 81.5261 328.922 81.3499C328.723 80.7362 328.986 80.1239 329.714 79.5133L330.231 79.0794L328.977 77.5842L328.516 77.9706C328.421 78.0363 328.316 78.0273 328.203 77.9433L330.222 76.2494L330.365 76.4198ZM330.056 79.5493C329.609 79.931 329.625 80.4156 330.104 81.0029C330.595 81.5798 331.063 81.6892 331.507 81.3307L331.867 81.0287L330.39 79.2685L330.056 79.5493ZM272.885 71.0866C273.244 71.7277 274.044 72.3971 275.217 72.7598C275.804 72.9411 276.336 72.9987 276.803 72.9272L276.925 73.2601C276.117 73.7783 275.47 74.7135 275.194 75.7294C275.056 76.2374 275.024 76.7157 275.1 77.1725L274.768 77.2939C274.339 76.5347 273.385 75.8859 272.336 75.5944C271.817 75.4512 271.317 75.4086 270.839 75.475L270.718 75.1422C271.547 74.634 272.287 73.4854 272.495 72.5034C272.601 72.007 272.624 71.5768 272.552 71.208L272.885 71.0866ZM272.733 71.3577C272.953 72.2106 273.034 73.1954 272.926 73.7638C272.505 74.2582 271.638 74.861 270.958 75.1624L270.999 75.2732C271.716 75.0748 272.813 74.9808 273.411 75.0951C273.861 75.4697 274.424 76.2523 274.804 77.0475L274.914 77.0071C274.707 76.2392 274.618 75.2572 274.726 74.6166C275.127 74.1388 275.98 73.5232 276.689 73.2024L276.648 73.0911C275.907 73.2981 274.89 73.3904 274.242 73.2854C273.761 72.877 273.184 72.0549 272.844 71.3173L272.733 71.3577ZM337.333 70.2384L336.961 70.6112L339.022 75.2231L338.591 75.654L333.88 73.6915L333.705 73.866C333.682 73.8893 333.659 73.9087 333.635 73.9242C333.577 73.9669 333.501 73.9419 333.408 73.8488L334.969 72.2879L335.126 72.4452L334.713 72.8585L336.268 73.5398L337.426 72.381L336.727 70.8438L336.402 71.1701C336.378 71.1933 336.355 71.2127 336.332 71.2282C336.274 71.2709 336.198 71.2455 336.105 71.1524L337.176 70.0811L337.333 70.2384ZM336.512 73.645L338.37 74.4659L337.531 72.6258L336.512 73.645ZM342.52 63.9118C343.183 63.8732 343.787 64.0817 344.329 64.5369C344.788 64.9216 345.082 65.3949 345.213 65.9562C345.391 66.7434 345.183 67.4904 344.591 68.1969C344.22 68.6385 343.782 68.959 343.278 69.159C343.348 69.2112 343.401 69.2595 343.436 69.3031C343.486 69.3806 343.465 69.474 343.373 69.5834L342.115 68.5596L342.3 68.3386C342.6 68.4759 342.865 68.5659 343.095 68.6082C343.578 68.6906 343.985 68.5341 344.316 68.1388C344.94 67.3867 344.678 66.5252 343.529 65.5541C343.176 65.2577 342.859 65.0341 342.577 64.8834C341.858 64.5098 341.275 64.5901 340.826 65.1242C340.714 65.2587 340.626 65.3928 340.563 65.5268C340.341 66.0139 340.457 66.5807 340.911 67.2268L340.736 67.4352L339.493 66.3922C339.532 66.346 339.568 66.3114 339.601 66.289C339.682 66.2276 339.8 66.2662 339.956 66.4044C340.086 65.8319 340.332 65.3292 340.695 64.8961C341.207 64.2863 341.815 63.9579 342.52 63.9118ZM266.302 51.0592C266.302 52.6814 266.406 54.2796 266.606 55.8467C267.176 60.3072 268.531 64.522 270.528 68.3482L269.151 69.0674C267.07 65.0814 265.658 60.69 265.065 56.0434C264.856 54.4112 264.749 52.7474 264.749 51.0592H266.302ZM344.535 51.2008C346.275 50.7887 348.02 51.8655 348.433 53.6049C348.845 55.3445 347.768 57.0904 346.028 57.5027C344.289 57.9148 342.543 56.838 342.13 55.0986C341.718 53.359 342.795 51.6132 344.535 51.2008ZM348.031 53.7005C347.671 52.1825 346.148 51.2432 344.63 51.603C343.112 51.9628 342.173 53.4855 342.533 55.0035C342.892 56.5213 344.415 57.4603 345.933 57.1006C347.451 56.7408 348.39 55.2184 348.031 53.7005ZM345.132 53.7198C345.476 53.6381 345.83 53.8495 345.913 54.2023C345.995 54.5468 345.776 54.9021 345.431 54.9838C345.079 55.0673 344.732 54.8461 344.65 54.5017C344.566 54.1489 344.779 53.8034 345.132 53.7198ZM264.587 40.1672L264.546 40.4024L263.914 40.4747C263.909 40.4738 263.903 40.4758 263.896 40.4803C263.36 40.5475 263.049 40.8242 262.964 41.3108L262.802 42.2273L264.821 42.5834L265.096 41.026L265.339 41.069L265.065 42.6264L267.231 43.0083L267.399 42.0508L267.618 42.0898L267.134 44.8307L266.916 44.7923L267.03 44.1433L262.602 43.3629L262.488 44.0113L262.269 43.9729L262.984 39.9178L264.587 40.1672ZM347.552 42.1722L345.986 42.3887L345.958 42.152L346.501 41.9056C346.548 41.8836 346.595 41.8588 346.642 41.8313C347.047 41.6125 347.223 41.2792 347.171 40.8323L347.063 39.9077L345.026 40.1464L345.21 41.717L344.965 41.7458L344.781 40.1753L342.597 40.4312L342.706 41.3553C342.718 41.4588 342.74 41.5561 342.773 41.6462C342.891 41.9473 343.168 42.1444 343.605 42.2369L344.191 42.3588L344.219 42.5961L342.645 42.7473L342.165 38.6579L342.386 38.6321L342.463 39.2861L346.929 38.7626L346.852 38.1086L347.073 38.0828L347.552 42.1722ZM344.409 30.222L341.674 33.0591L345.506 33.2321L346.112 34.8957L345.903 34.9715L345.678 34.3524L341.453 35.8916L341.602 36.3018C341.631 36.4138 341.587 36.5092 341.469 36.5871L340.638 34.3044L340.847 34.228L341.072 34.8471L344.747 33.5082L340.18 33.2882L340.129 33.1486L342.732 30.3333L339.815 31.3965L339.964 31.8062C339.993 31.9182 339.949 32.0136 339.832 32.0915L339.262 30.5285L339.471 30.4522L339.696 31.0713L343.921 29.5321L343.695 28.913L343.905 28.8371L344.409 30.222ZM270.272 32.7151L268.674 36.4202L268.469 36.3322L268.73 35.7272L264.602 33.9463L264.341 34.5512L264.137 34.4632L265.131 32.1567L265.336 32.2447L265.058 32.8876L269.187 34.6686L269.523 33.8896C269.588 33.7385 269.621 33.5937 269.621 33.4562C269.609 33.2184 269.458 32.9736 269.166 32.7222L268.549 32.1962L268.644 31.9772L270.272 32.7151ZM271.894 23.2561L271.751 23.4473L271.188 23.2535C271.138 23.2373 271.087 23.2229 271.034 23.211C270.589 23.0919 270.232 23.2131 269.963 23.5742L269.408 24.3203L271.052 25.5448L271.997 24.2768L272.195 24.4245L271.251 25.6925L273.015 27.0056L273.57 26.259C273.632 26.1754 273.683 26.0895 273.721 26.0016C273.841 25.7015 273.775 25.3679 273.521 25.0011L273.178 24.5094L273.321 24.3183L274.57 25.2889L272.111 28.5918L271.933 28.4588L272.326 27.9302L268.719 25.2454L268.326 25.774L268.148 25.6409L270.606 22.338L271.894 23.2561ZM336.781 22.1691C337.409 21.7556 338.066 21.6354 338.752 21.8084C339.415 21.9768 339.947 22.3664 340.348 22.9764C340.689 23.4945 340.847 24.0383 340.821 24.6076C340.78 25.4035 340.381 26.0509 339.624 26.5489C339 26.9593 338.346 27.084 337.662 26.9232C337.002 26.7594 336.472 26.3725 336.07 25.7628C335.717 25.2264 335.563 24.6569 335.608 24.0557C335.67 23.272 336.061 22.6429 336.781 22.1691ZM339.777 22.7214C339.285 22.3942 338.515 22.5765 337.464 23.2677C336.914 23.6298 336.525 23.9675 336.298 24.2813C335.98 24.7271 335.975 25.1844 336.283 25.6521C336.422 25.8628 336.584 26.0094 336.769 26.0911C337.245 26.304 337.971 26.089 338.948 25.4462C339.36 25.1746 339.684 24.912 339.919 24.6592C340.404 24.1292 340.476 23.6048 340.135 23.0866C340.033 22.9308 339.913 22.809 339.777 22.7214ZM278.28 16.5248L278.097 16.6786L277.593 16.3594C277.549 16.3322 277.502 16.3067 277.454 16.283C277.048 16.0644 276.673 16.0999 276.328 16.3892L275.615 16.9871L276.933 18.5581L278.144 17.542L278.303 17.7311L277.092 18.7473L278.506 20.4316L279.218 19.8338C279.298 19.7668 279.367 19.6945 279.424 19.6178C279.611 19.3536 279.623 19.0135 279.461 18.5981L279.24 18.0412L279.424 17.8874L280.414 19.1201L277.26 21.7665L277.118 21.5965L277.622 21.1726L274.732 17.7286L274.227 18.152L274.084 17.9815L277.238 15.3346L278.28 16.5248ZM331.675 14.9867C332.471 14.8546 333.205 15.1051 333.876 15.7378C334.295 16.1332 334.59 16.5886 334.761 17.1039C334.817 17.0363 334.868 16.9861 334.914 16.9537C334.994 16.9087 335.086 16.9353 335.19 17.0331L334.095 18.2304L333.885 18.0326C334.04 17.7408 334.145 17.481 334.2 17.2542C334.311 16.7772 334.178 16.3618 333.802 16.0079C333.087 15.3415 332.212 15.5534 331.176 16.6442C330.86 16.9797 330.619 17.2843 330.452 17.5571C330.038 18.2528 330.084 18.8396 330.591 19.3179C330.719 19.4383 330.848 19.5337 330.978 19.6036C331.451 19.8537 332.024 19.7711 332.695 19.3553L332.893 19.5414L331.78 20.722C331.736 20.6806 331.704 20.6425 331.683 20.6082C331.627 20.5244 331.672 20.4086 331.819 20.2607C331.255 20.0986 330.767 19.8235 330.355 19.4357C329.776 18.8897 329.484 18.2631 329.479 17.5566C329.479 16.8926 329.722 16.3026 330.208 15.7873C330.618 15.352 331.107 15.0849 331.675 14.9867ZM285.516 11.0657L285.326 11.2245L284.654 10.8208C284.558 10.7657 284.472 10.7189 284.397 10.6812C284.045 10.518 283.718 10.5632 283.415 10.8173L283.308 10.9073L286.198 14.3519L286.627 13.9917C286.723 13.9262 286.827 13.9357 286.94 14.0196L284.858 15.7661L284.716 15.5961L285.315 15.0929L282.425 11.6483L282.317 11.7384C282.174 11.8583 282.075 11.9881 282.02 12.1273C281.944 12.3349 281.972 12.6127 282.105 12.9594L282.386 13.6913L282.197 13.8501L281.089 12.4789L284.357 9.7364L285.516 11.0657ZM325.719 10.1835L325.608 10.3762L325.002 10.0262L322.755 13.9209L323.489 14.3448C323.632 14.4271 323.772 14.4764 323.909 14.492C324.146 14.5086 324.407 14.3862 324.691 14.1253L325.285 13.5739L325.491 13.6933L324.57 15.2249L321.074 13.2082L321.185 13.0155L321.756 13.3448L324.003 9.45011L323.432 9.12083L323.544 8.92862L325.719 10.1835ZM293.447 5.75368C295.186 5.34139 296.932 6.41819 297.344 8.15778C297.756 9.89724 296.68 11.6433 294.94 12.0555C293.201 12.4677 291.455 11.3907 291.042 9.65142C290.63 7.91188 291.707 6.16603 293.447 5.75368ZM318.259 7.15173L317.838 8.67623L317.609 8.60794L317.598 8.0116C317.597 7.95962 317.593 7.90632 317.586 7.85277C317.545 7.39382 317.309 7.09962 316.878 6.97065L315.986 6.70409L315.399 8.66915L316.914 9.12184L316.843 9.35856L315.328 8.90536L314.699 11.012L315.59 11.2786C315.69 11.3084 315.787 11.3265 315.883 11.3322C316.206 11.343 316.497 11.1661 316.755 10.8021L317.1 10.312L317.328 10.3803L316.844 11.8861L312.899 10.706L312.963 10.4931L313.594 10.6817L314.882 6.3738L314.251 6.18513L314.315 5.97219L318.259 7.15173ZM296.942 8.25287C296.582 6.73487 295.06 5.79551 293.542 6.15529C292.024 6.51516 291.085 8.03788 291.445 9.55582C291.804 11.0737 293.327 12.0131 294.845 11.6534C296.363 11.2935 297.302 9.77076 296.942 8.25287ZM306.633 5.33892L306.621 5.56046L305.963 5.52252L307.046 9.19013L307.978 7.04146L307.448 5.38596L309.355 5.49622L309.342 5.71827L308.685 5.67174L309.755 9.27257L311.118 5.82095L310.46 5.78301L310.473 5.56096L311.83 5.63987L311.817 5.86141L311.406 5.83764L309.563 10.4577L309.398 10.4481C309.305 10.4427 309.229 10.4217 309.171 10.3853C309.075 10.3246 308.972 10.1233 308.859 9.78192L308.105 7.42031L306.849 10.3009L306.685 10.2913C306.592 10.2859 306.516 10.2648 306.458 10.2285C306.362 10.168 306.258 9.96643 306.146 9.62461L304.804 5.45525L304.393 5.43148L304.406 5.20892L306.633 5.33892ZM294.043 8.27259C294.388 8.19091 294.742 8.40179 294.825 8.75463C294.907 9.0991 294.688 9.45433 294.343 9.5361C293.991 9.61967 293.643 9.39854 293.561 9.05406C293.478 8.70136 293.691 8.35632 294.043 8.27259Z" fill="#0033FF"/>
<mask id="path-2-inside-1_179_73" fill="white">
<path d="M366.347 97.0868H0V0H366.347V97.0868ZM0.553649 96.5334H32.7569V33.5966H0.553649V96.5334ZM33.31 96.5334H365.794V64.0435H33.31V96.5334ZM70.2001 79.3419C70.4075 79.3419 70.5917 79.379 70.7532 79.4537C70.9141 79.5267 71.0425 79.6274 71.1365 79.7553C71.2316 79.8831 71.2819 80.0281 71.2875 80.1908H70.9103C70.8915 80.0314 70.8146 79.908 70.6807 79.82C70.5469 79.732 70.3821 79.6878 70.1874 79.6878C70.0452 79.6878 69.9202 79.7105 69.8135 79.7569C69.7073 79.8029 69.6249 79.8665 69.5651 79.9468C69.5065 80.0275 69.4772 80.1194 69.4772 80.2218C69.4772 80.3081 69.4977 80.3823 69.538 80.4442C69.5801 80.5051 69.6337 80.5555 69.699 80.5964C69.7637 80.6363 69.8317 80.6695 69.9031 80.6955C69.9739 80.7204 70.0397 80.7409 70.0994 80.7564L70.4263 80.8443C70.5098 80.8665 70.6033 80.8969 70.7062 80.9362C70.8096 80.9749 70.9091 81.0275 71.0032 81.095C71.0983 81.1609 71.1769 81.2455 71.2388 81.3496C71.3002 81.4531 71.3317 81.5803 71.3317 81.7314C71.3317 81.9052 71.2853 82.0629 71.1945 82.2035C71.1044 82.3435 70.9722 82.4547 70.7985 82.5377C70.6254 82.6207 70.4158 82.6622 70.1686 82.6622C69.9379 82.6622 69.7383 82.6251 69.5696 82.5504C69.402 82.4763 69.2698 82.3722 69.1735 82.2394C69.0784 82.1066 69.0248 81.9517 69.012 81.7757H69.4141C69.4246 81.8969 69.4656 81.9976 69.5369 82.0773C69.6088 82.1559 69.7006 82.2145 69.8107 82.2533C69.9213 82.2909 70.0408 82.3103 70.1686 82.3103C70.3173 82.3103 70.4512 82.2859 70.5696 82.2378C70.6874 82.1885 70.7814 82.1205 70.8505 82.0336C70.9197 81.9456 70.954 81.8421 70.954 81.7248C70.954 81.6185 70.9241 81.5316 70.8649 81.4647C70.8052 81.3972 70.7261 81.3424 70.6287 81.3009C70.5314 81.2588 70.4258 81.2218 70.3129 81.1902L69.9169 81.0773C69.6658 81.0054 69.4667 80.9019 69.3201 80.768C69.1735 80.6335 69.1 80.4581 69.1 80.2411C69.1005 80.0607 69.1487 79.9036 69.246 79.7697C69.3445 79.6346 69.4766 79.5295 69.642 79.4553C69.8085 79.3795 69.9949 79.3419 70.2001 79.3419ZM75.6763 79.3419C75.8837 79.3419 76.0679 79.379 76.2294 79.4537C76.3909 79.5267 76.5187 79.6274 76.6127 79.7553C76.7084 79.8831 76.7581 80.0281 76.7637 80.1908H76.3865C76.3677 80.0314 76.2913 79.908 76.1569 79.82C76.0231 79.732 75.8588 79.6878 75.6641 79.6878C75.5214 79.6878 75.397 79.7105 75.2902 79.7569C75.1846 79.8029 75.1016 79.8665 75.0419 79.9468C74.9833 80.0275 74.954 80.1194 74.9534 80.2218C74.9534 80.3081 74.9744 80.3823 75.0154 80.4442C75.0574 80.5046 75.1105 80.5555 75.1752 80.5964C75.2399 80.6363 75.3079 80.6695 75.3793 80.6955C75.4506 80.7204 75.5165 80.7409 75.5756 80.7564L75.9025 80.8443C75.9866 80.8665 76.0801 80.8969 76.1824 80.9362C76.2864 80.9749 76.3854 81.0275 76.4794 81.095C76.5745 81.1609 76.6531 81.2455 76.715 81.3496C76.777 81.4531 76.8079 81.5803 76.8079 81.7314C76.8079 81.9052 76.7626 82.0629 76.6713 82.2035C76.5812 82.3435 76.449 82.4547 76.2753 82.5377C76.1027 82.6207 75.892 82.6622 75.6448 82.6622C75.4147 82.6622 75.215 82.6251 75.0463 82.5504C74.8793 82.4763 74.7471 82.3722 74.6508 82.2394C74.5552 82.1066 74.501 81.9517 74.4888 81.7757H74.8909C74.9014 81.8974 74.9423 81.9976 75.0137 82.0773C75.0861 82.1559 75.1769 82.2145 75.2869 82.2533C75.3981 82.2909 75.5176 82.3103 75.6448 82.3103C75.7936 82.3103 75.9274 82.2859 76.0458 82.2378C76.1641 82.1885 76.2581 82.1205 76.3273 82.0336C76.3964 81.9456 76.4307 81.8421 76.4307 81.7248C76.4307 81.618 76.4008 81.5316 76.3411 81.4647C76.2814 81.3972 76.2028 81.3424 76.1055 81.3009C76.0081 81.2588 75.9031 81.2218 75.7897 81.1902L75.3937 81.0773C75.1426 81.0054 74.9429 80.9019 74.7963 80.768C74.6497 80.6335 74.5767 80.4581 74.5767 80.2411C74.5767 80.0607 74.6254 79.9036 74.7227 79.7697C74.8212 79.6346 74.9534 79.5295 75.1188 79.4553C75.2852 79.3795 75.4711 79.3419 75.6763 79.3419ZM85.2238 79.3419C85.4982 79.3419 85.7426 79.4089 85.9561 79.5433C86.1696 79.6773 86.3383 79.8682 86.4606 80.1155C86.5833 80.3629 86.6442 80.6562 86.6442 80.996C86.6442 81.3352 86.5833 81.629 86.4606 81.8764C86.3383 82.1238 86.1696 82.3147 85.9561 82.4486C85.7426 82.5825 85.4982 82.6495 85.2238 82.6495C84.9495 82.6495 84.7056 82.5825 84.4921 82.4486C84.278 82.3147 84.1099 82.1238 83.9871 81.8764C83.8649 81.629 83.804 81.3352 83.8035 80.996C83.8035 80.6562 83.8649 80.3629 83.9871 80.1155C84.1099 79.8682 84.278 79.6773 84.4921 79.5433C84.7056 79.4094 84.9495 79.3419 85.2238 79.3419ZM101.123 79.3419C101.292 79.3419 101.45 79.3679 101.597 79.4188C101.744 79.4692 101.876 79.5411 101.991 79.6341C102.107 79.7265 102.204 79.8372 102.282 79.9661C102.36 80.094 102.413 80.2362 102.442 80.3922H102.04C102.006 80.2865 101.96 80.1913 101.904 80.1072C101.848 80.0226 101.781 79.9506 101.704 79.8909C101.627 79.8311 101.54 79.7852 101.443 79.7536C101.345 79.7221 101.239 79.7066 101.123 79.7066C100.932 79.7066 100.759 79.7558 100.603 79.8543C100.446 79.9528 100.322 80.0978 100.23 80.2898C100.138 80.4813 100.092 80.7171 100.092 80.996C100.092 81.2749 100.138 81.5101 100.232 81.7015C100.324 81.8936 100.451 82.0385 100.61 82.137C100.769 82.2355 100.948 82.2848 101.147 82.2848C101.332 82.2848 101.494 82.2455 101.635 82.1669C101.776 82.0872 101.886 81.9749 101.964 81.8305C102.041 81.691 102.079 81.5283 102.083 81.3418H101.235V80.996H102.461V81.3418C102.461 81.6069 102.405 81.8377 102.291 82.0336C102.18 82.2295 102.024 82.3811 101.826 82.489C101.629 82.5958 101.403 82.6495 101.147 82.6495C100.863 82.6495 100.612 82.5825 100.396 82.4486C100.182 82.3147 100.014 82.1238 99.8936 81.8764C99.7741 81.629 99.7144 81.3352 99.7144 80.996C99.7144 80.7414 99.7487 80.5118 99.8167 80.3087C99.8858 80.1045 99.9832 79.9307 100.109 79.7868C100.234 79.6435 100.384 79.5334 100.556 79.457C100.727 79.3801 100.916 79.3419 101.123 79.3419ZM43.5724 79.3862C43.8252 79.3862 44.0315 79.4315 44.1913 79.5229C44.3528 79.6131 44.4723 79.7354 44.5497 79.8892C44.6271 80.043 44.6664 80.2151 44.6664 80.405C44.6664 80.5942 44.6271 80.7669 44.5497 80.9218C44.4734 81.0768 44.355 81.2002 44.1946 81.2926C44.0342 81.3839 43.829 81.4298 43.5785 81.4298H42.8744V82.6058H42.485V79.3862H43.5724ZM49.891 79.732H48.3379V80.82H49.7897V81.1659H48.3379V82.2599H49.9159V82.6058H47.9485V79.3862H49.891V79.732ZM54.3351 79.3862C54.5862 79.3862 54.793 79.4288 54.954 79.5146C55.1155 79.5998 55.2355 79.7165 55.313 79.8654C55.3904 80.0143 55.4291 80.1836 55.4291 80.3734C55.4291 80.5627 55.3904 80.7309 55.313 80.8775C55.2355 81.0242 55.1161 81.1399 54.9557 81.2234C54.9158 81.2439 54.8732 81.2621 54.8279 81.2776L55.5547 82.6058H55.1022L54.4219 81.344C54.3959 81.3452 54.3688 81.3479 54.3417 81.3479H53.6376V82.6058H53.2477V79.3862H54.3351ZM60.2919 82.0585H60.3295L61.4236 79.3862H61.8882V82.6058H61.5237V80.1593H61.4927L60.4866 82.6058H60.1348L59.1288 80.1593H59.0978V82.6058H58.7327V79.3862H59.1979L60.2919 82.0585ZM65.7139 82.6058H65.3245V79.3862H65.7139V82.6058ZM80.4932 82.6058H80.1033V79.3862H80.4932V82.6058ZM92.0916 81.9201H92.1226V79.3862H92.5064V82.6058H92.1292L90.3754 80.0779H90.3444V82.6058H89.955V79.3862H90.3317L92.0916 81.9201ZM106.871 79.3862C107.122 79.3862 107.328 79.4288 107.49 79.5146C107.651 79.5998 107.771 79.7165 107.848 79.8654C107.926 80.0143 107.964 80.1836 107.964 80.3734C107.964 80.5627 107.926 80.7309 107.848 80.8775C107.771 81.0242 107.651 81.1399 107.491 81.2234C107.451 81.2439 107.409 81.2621 107.363 81.2776L108.09 82.6058H107.637L106.958 81.344C106.931 81.3452 106.905 81.3479 106.877 81.3479H106.173V82.6058H105.784V79.3862H106.871ZM113.757 82.6058H113.349L113.025 81.6938H111.724L111.401 82.6058H110.992L112.173 79.3862H112.576L113.757 82.6058ZM119.051 81.9201H119.082V79.3862H119.465V82.6058H119.088L117.334 80.0779H117.303V82.6058H116.914V79.3862H117.291L119.051 81.9201ZM125.137 79.732H124.126V82.6058H123.736V79.732H122.724V79.3862H125.137V79.732ZM130.336 79.732H128.783V80.82H130.235V81.1659H128.783V82.2599H130.361V82.6058H128.394V79.3862H130.336V79.732ZM134.73 79.3862C135.042 79.3862 135.309 79.4504 135.532 79.5793C135.754 79.7071 135.924 79.8914 136.042 80.131C136.161 80.3701 136.22 80.6562 136.22 80.9893C136.22 81.3247 136.16 81.6136 136.041 81.8559C135.921 82.0967 135.747 82.2826 135.519 82.4121C135.291 82.541 135.013 82.6058 134.687 82.6058H133.693V79.3862H134.73ZM85.2238 79.7066C85.0291 79.7066 84.8527 79.7558 84.6945 79.8543C84.5374 79.9528 84.4124 80.0978 84.319 80.2898C84.2266 80.4813 84.1807 80.7171 84.1807 80.996C84.1807 81.2749 84.2266 81.5101 84.319 81.7015C84.4124 81.8936 84.5374 82.0385 84.6945 82.137C84.8527 82.2355 85.0291 82.2848 85.2238 82.2848C85.4185 82.2848 85.595 82.2355 85.752 82.137C85.9102 82.0385 86.0352 81.8936 86.1276 81.7015C86.2205 81.5101 86.2675 81.2749 86.2675 80.996C86.2675 80.7171 86.2205 80.4813 86.1276 80.2898C86.0352 80.0978 85.9102 79.9528 85.752 79.8543C85.595 79.7558 85.4185 79.7066 85.2238 79.7066ZM134.083 82.2599H134.661C134.927 82.2599 135.148 82.2079 135.323 82.1055C135.497 82.0026 135.628 81.8565 135.714 81.6672C135.799 81.4774 135.843 81.2516 135.843 80.9893C135.843 80.7298 135.8 80.5057 135.715 80.3181C135.63 80.1294 135.504 79.9849 135.335 79.8842C135.167 79.7824 134.957 79.732 134.705 79.732H134.083V82.2599ZM111.847 81.3479H112.903L112.387 79.8953H112.362L111.847 81.3479ZM42.8744 81.084H43.5658C43.7389 81.084 43.8777 81.0541 43.9822 80.9943C44.0873 80.9346 44.1631 80.8538 44.2101 80.7519C44.2588 80.6496 44.2826 80.5333 44.2826 80.405C44.2826 80.276 44.2588 80.1604 44.2101 80.0591C44.1631 79.9573 44.0868 79.8776 43.9806 79.82C43.8749 79.7614 43.735 79.732 43.5602 79.732H42.8744V81.084ZM53.6376 80.996H54.329C54.501 80.996 54.6393 80.9705 54.7438 80.9202C54.85 80.8698 54.9258 80.7984 54.9728 80.706C55.0215 80.613 55.0453 80.5024 55.0453 80.3734C55.0453 80.2445 55.0215 80.1316 54.9728 80.0353C54.9247 79.939 54.8484 79.8643 54.7422 79.8117C54.6365 79.7586 54.4966 79.732 54.3229 79.732H53.6376V80.996ZM106.173 80.996H106.865C107.036 80.996 107.175 80.9705 107.28 80.9202C107.385 80.8698 107.462 80.7984 107.509 80.706C107.557 80.613 107.581 80.5024 107.581 80.3734C107.581 80.2445 107.557 80.1316 107.509 80.0353C107.461 79.939 107.384 79.8643 107.278 79.8117C107.172 79.7586 107.032 79.732 106.858 79.732H106.173V80.996ZM15.9274 78.1328C16.1144 78.1328 16.2792 78.1732 16.4222 78.2539C16.5652 78.3347 16.6768 78.4515 16.7565 78.6048C16.8362 78.757 16.8759 78.9412 16.8759 79.1576V79.6584H17.7893V80.2539H14.973V79.1421C14.973 78.9285 15.0141 78.7465 15.0956 78.5959C15.1763 78.4454 15.2888 78.3309 15.4326 78.2523C15.5756 78.1726 15.7405 78.1328 15.9274 78.1328ZM15.9274 78.7459C15.834 78.7459 15.7524 78.7647 15.6828 78.8023C15.6122 78.8389 15.5576 78.8953 15.5191 78.9706C15.4797 79.0458 15.4602 79.141 15.4602 79.2561V79.6584H16.399V79.2534C16.399 79.1394 16.3794 79.0447 16.3401 78.9706C16.2998 78.8953 16.2443 78.8389 16.1737 78.8023C16.1022 78.7647 16.02 78.7459 15.9274 78.7459ZM17.7893 73.8573L16.7911 74.3902V74.8257H17.7893V75.4217H14.973V74.31C14.973 74.0969 15.0115 73.9154 15.0875 73.7649C15.1627 73.6138 15.2694 73.4987 15.4078 73.4196C15.5452 73.3399 15.7069 73.3006 15.8929 73.3006C16.0798 73.3006 16.241 73.341 16.3757 73.4212C16.5095 73.502 16.6121 73.6193 16.6836 73.7721C16.6875 73.7804 16.6907 73.7892 16.6944 73.7975L17.7893 73.1999V73.8573ZM15.8929 73.9137C15.7996 73.9137 15.7209 73.9326 15.6568 73.9702C15.5927 74.0067 15.544 74.0637 15.511 74.1395C15.4771 74.2148 15.4602 74.3094 15.4602 74.424V74.8257H16.3125V74.4212C16.3125 74.3078 16.2967 74.2131 16.2656 74.1379C16.2344 74.0631 16.1879 74.0067 16.1257 73.9702C16.0633 73.9326 15.9854 73.9137 15.8929 73.9137ZM17.7887 70.5552H14.973V68.6566H15.464V69.9598H16.1349V68.7545H16.6258V69.9598H17.2983V68.651H17.7887V70.5552ZM17.7887 63.3828H15.956V63.4066L17.7752 64.1354V64.5289L15.9496 65.2577V65.2809H17.7887V65.8587H14.973V65.1243L16.8651 64.3485V64.3153L14.973 63.54V62.8051H17.7887V63.3828ZM33.31 63.4902H365.794V33.5966H199.552H33.31V63.4902ZM17.7887 59.9906H14.973V59.3946H17.7887V59.9906ZM16.8019 54.2447C17.0072 54.2447 17.187 54.2934 17.3409 54.392C17.4949 54.4888 17.6151 54.6255 17.7012 54.8004C17.7864 54.9752 17.8287 55.18 17.8287 55.4124C17.8287 55.6465 17.7864 55.8507 17.7012 56.0261C17.6151 56.201 17.4949 56.3371 17.3409 56.4345C17.187 56.5319 17.0072 56.5806 16.8019 56.5806H14.973V55.9851H16.7511C16.8582 55.9851 16.9535 55.9614 17.0368 55.9149C17.1203 55.8667 17.1858 55.7998 17.2335 55.7134C17.2811 55.6277 17.3047 55.5269 17.3048 55.4124C17.3048 55.2973 17.2811 55.1966 17.2335 55.1114C17.1858 55.025 17.1203 54.9586 17.0368 54.9116C16.9535 54.864 16.8582 54.8402 16.7511 54.8402H14.973V54.2447H16.8019ZM68.7709 42.4997C68.8373 42.384 68.9036 42.2352 69.0856 42.3176C69.2183 42.384 69.2183 42.55 69.1193 42.7327C68.887 43.1477 68.6376 43.5633 68.3721 43.9617C67.4263 45.4393 66.4639 46.8836 65.5181 48.3446C65.4518 48.411 65.4186 48.5277 65.3356 48.66C66.2482 48.6766 67.1111 48.6932 67.9573 48.9588V49.0247C67.5259 49.0413 67.1276 49.1243 66.6968 49.1409C66.2156 49.1741 65.7338 49.1746 65.2361 49.1746C65.0369 49.1746 64.9208 49.2576 64.8046 49.4237C63.6929 51.0838 62.548 52.7606 61.4202 54.4202C61.1879 54.7522 60.9219 55.0848 60.6896 55.4168C60.5408 55.6326 60.3743 55.699 60.2256 55.5994C60.0762 55.5164 60.0591 55.3504 60.1918 55.1014C60.308 54.8026 60.5071 54.5867 60.7228 54.3543C61.0712 54.0057 61.3533 53.5906 61.6354 53.1922C62.4982 51.9305 63.3279 50.6688 64.1741 49.4237C64.2073 49.3573 64.241 49.2903 64.3069 49.2078C64.1913 49.1912 64.1243 49.1746 64.058 49.1746C63.4274 49.1746 62.7969 49.1912 62.1498 49.1746C61.9507 49.1746 61.8179 49.2576 61.735 49.4237C61.287 50.0877 60.8389 50.785 60.3743 51.4324C60.1089 51.8475 59.777 52.1795 59.4783 52.5448C59.3456 52.744 59.1963 52.91 59.0635 53.076C58.9313 52.9764 59.0137 52.843 59.0635 52.76C59.329 52.3123 59.5613 51.8475 59.8434 51.4158C60.2914 50.702 60.7394 50.0379 61.204 49.3407C61.2206 49.3074 61.2206 49.2737 61.2704 49.2078C61.1708 49.2078 61.121 49.1912 61.0381 49.1912C59.9761 49.1912 58.9142 49.1912 57.8528 49.2078C56.3096 49.2576 54.766 49.3074 53.2062 49.3573C52.6753 49.3573 52.1775 49.4071 51.6465 49.4237C51.5303 49.4237 51.3318 49.4397 51.3312 49.2576C51.3152 49.075 51.4811 49.0252 51.6304 49.0086C52.0447 48.9754 52.4595 48.8924 52.8412 48.8924C54.4839 48.826 56.11 48.7756 57.7195 48.7258C58.9308 48.6926 60.1586 48.6766 61.3699 48.6766C61.5856 48.6766 61.7184 48.5936 61.8179 48.411C62.6973 47.1326 63.5934 45.8543 64.4728 44.5594C64.7715 44.161 65.0369 43.762 65.3688 43.3469C65.4352 43.2307 65.5353 43.0979 65.767 43.1643C65.7173 43.3137 65.6841 43.4465 65.6011 43.5461C65.2361 44.1272 64.8544 44.7088 64.4728 45.2893C63.7759 46.3518 63.0458 47.4149 62.3489 48.4774C62.3323 48.5272 62.2991 48.5609 62.2659 48.66H64.4562C64.6221 48.66 64.7051 48.593 64.8046 48.4442C65.6675 47.1824 66.5137 45.9041 67.3599 44.6092C67.8245 43.9285 68.3063 43.2136 68.7709 42.4997ZM108.847 41.9524C108.996 41.9026 109.112 41.9031 109.212 42.0022C109.311 42.1018 109.295 42.2346 109.212 42.3508C108.996 42.6165 108.813 42.8821 108.564 43.1145C107.652 43.9944 106.623 44.7586 105.561 45.4393C104.898 45.8709 104.35 46.4188 103.853 47.033C102.641 48.4442 101.529 49.9715 100.5 51.5321C100.119 52.1297 99.804 52.7772 99.4721 53.3914C99.4058 53.5408 99.3554 53.7235 99.2896 53.9227C99.273 54.1385 99.3726 54.3045 99.5883 54.3543C99.7868 54.4041 99.9533 54.4368 100.136 54.4202C100.932 54.3704 101.728 54.3377 102.525 54.2215C104.284 53.9725 106.026 53.6571 107.785 53.3914C108.979 53.1922 110.191 53.1092 111.402 53.0262C111.634 53.0262 111.866 53.0428 112.115 53.0926C112.248 53.1092 112.348 53.1756 112.298 53.408C111.518 53.491 110.738 53.5408 109.942 53.6239C109.228 53.6737 108.482 53.7733 107.785 53.8563C106.706 54.0057 105.644 54.2049 104.582 54.3709C103.537 54.5369 102.475 54.6864 101.38 54.8026C101.123 54.8358 100.857 54.8479 100.592 54.8524H99.7044C99.0241 54.7694 98.7089 54.3377 98.8914 53.6903C99.0241 53.2752 99.1901 52.8934 99.4052 52.5116C100.119 51.2166 100.966 50.0213 101.845 48.826C102.227 48.328 102.608 47.8797 102.939 47.3817C103.022 47.3153 103.056 47.2323 103.072 47.116C102.873 47.2489 102.641 47.3817 102.425 47.5145C101.447 48.1287 100.467 48.7264 99.455 49.3407C99.1065 49.5399 98.7083 49.6893 98.3101 49.8547C98.2105 49.9046 98.0778 49.9378 97.929 49.8055C97.9948 49.7557 98.0452 49.6893 98.1115 49.6561C99.82 48.8094 101.414 47.7137 103.04 46.701C103.952 46.1531 104.699 45.4227 105.445 44.659C106.241 43.8289 107.088 43.0315 108.05 42.3674C108.233 42.2346 108.432 42.135 108.631 42.0188C108.714 41.9856 108.797 41.969 108.847 41.9524ZM118.951 42.8987C119.017 42.7659 119.183 42.617 119.316 42.7327C119.365 42.7659 119.382 42.9153 119.382 42.9983C119.366 43.0813 119.266 43.1809 119.233 43.2473C118.735 43.928 118.967 43.6961 118.321 44.6424C119.266 44.8084 121.407 44.7752 123.083 44.5926C123.614 44.5428 124.095 44.493 124.41 44.5096C124.957 44.5428 124.874 44.7918 124.41 44.8914C123.198 45.1072 119.084 45.074 118.038 45.0408C117.275 46.0037 116.362 47.4481 115.881 48.3612C115.483 49.1414 114.936 50.4524 116.014 50.0047C116.495 49.8221 117.308 49.2742 117.822 48.8426C117.91 48.7845 117.973 48.7137 118.054 48.6633C118.104 48.5737 118.209 48.5045 118.383 48.494C118.765 48.4442 118.814 48.6096 119.014 48.2449C119.661 47.1824 120.341 46.3856 121.171 45.5555C121.287 45.4393 121.403 45.3231 121.536 45.2401C121.619 45.1737 121.685 45.1404 121.768 45.0906C122.033 45.0076 122.299 45.2567 122.249 45.6053C122.216 45.8211 122.166 46.0369 122.067 46.2029C121.585 47.0164 121.021 47.7303 120.324 48.2449C120.192 48.3612 120.042 48.4436 119.827 48.1785C120.54 47.5145 121.237 46.8001 121.718 45.8206C121.287 45.9871 119.827 47.7469 119.412 48.5604C120.49 48.743 121.984 48.6268 122.896 48.4774C122.941 48.4718 122.983 48.4724 123.021 48.4851C123.234 48.1055 123.408 47.6423 123.662 47.2987C123.877 47.0164 124.408 47.3153 124.06 47.7796C123.844 48.1282 123.612 48.4608 123.396 48.826C122.733 50.1868 124.574 49.225 124.923 48.8426C125.371 48.3612 125.67 48.909 125.288 49.1082C124.807 49.3738 124.309 49.6395 123.761 49.7723C123.595 49.7889 123.396 49.8055 123.23 49.7723C122.932 49.7225 122.766 49.4397 122.816 49.158C122.816 49.0872 122.818 49.0108 122.828 48.9356C122.173 48.8946 121.59 48.9151 121.038 49.0418C121.104 49.7385 120.789 50.3533 120.491 50.801C119.794 51.8137 118.931 52.661 117.935 53.2752C117.769 53.3582 117.57 53.4246 117.354 53.491C116.956 53.5569 116.675 53.2083 116.74 52.7274C116.79 52.5448 116.84 52.3621 116.923 52.1961C117.437 51.1336 117.985 50.0047 118.383 49.158C118.309 49.1547 118.244 49.1326 118.191 49.0983C117.782 49.4214 116.811 50.0888 116.047 50.3533C114.774 50.7922 114.925 49.7092 115.192 48.9284C115.076 48.9489 114.962 48.9655 114.836 48.9754C114.421 49.0584 114.006 49.1082 113.608 49.1912C113.491 49.2078 113.392 49.2576 113.309 49.3573C112.845 49.7889 112.612 50.0877 112.197 50.2205C111.6 50.4026 110.986 50.0047 111.8 48.7098C112.082 48.2616 112.496 47.9129 112.928 47.5643C113.11 47.4315 113.293 47.3153 113.558 47.2987C113.923 47.2655 114.139 47.4315 114.123 47.7967C114.123 47.9627 114.023 48.1619 113.99 48.3612C113.94 48.4608 113.89 48.5604 113.824 48.7098C114.089 48.66 114.338 48.6434 114.57 48.5936C114.753 48.5604 115.052 48.5266 115.251 48.494C115.298 48.494 115.331 48.4945 115.361 48.4967C115.882 47.2876 116.854 46.0198 117.458 45.0574C116.728 45.074 115.915 45.0906 115.301 45.0906C114.787 45.1571 114.736 44.9252 114.77 44.8582C114.836 44.7586 114.952 44.6258 115.417 44.659C116.147 44.7254 116.96 44.7254 117.723 44.6258C117.756 44.6092 117.79 44.576 117.806 44.5428C118.42 43.6795 118.321 43.7288 118.951 42.8987ZM120.606 49.0584C120.042 49.1746 119.113 48.9422 118.881 49.241C118.698 49.474 118.333 50.3196 118.201 50.5692C117.885 51.2493 117.587 51.9471 117.255 52.6278C117.222 52.6942 117.222 52.8104 117.205 52.8762C117.205 52.926 117.238 52.9432 117.255 52.9598C117.404 52.8934 117.587 52.8602 117.736 52.7938C118.798 52.1297 119.661 51.1829 120.391 50.0379C120.474 49.8713 120.606 49.3905 120.606 49.0584ZM17.7887 48.9544H15.956V48.9776L17.7752 49.7064V50.0999L15.9496 50.8293V50.8525H17.7887V51.4302H14.973V50.6959L16.8651 49.92V49.8868L14.973 49.111V48.3767H17.7887V48.9544ZM84.6514 46.5682C84.7509 46.5516 84.8339 46.5184 84.8837 46.5516C84.9827 46.5848 85.0988 46.6346 85.1486 46.7176C85.2316 46.8006 85.1818 46.95 85.0988 47.033C85.0159 47.0994 84.9495 47.1824 84.8499 47.2322C84.0867 47.7469 83.3073 48.2781 82.5275 48.7762C82.0961 49.075 81.6309 49.3739 81.1829 49.6561C81.1503 49.6727 81.1331 49.7059 81.1165 49.8055C81.4318 49.7723 81.7476 49.7557 82.0463 49.6893C82.8593 49.6063 87.1398 49.3074 87.9528 49.2078C88.2847 49.1912 88.6165 49.158 88.8986 49.4735C88.7659 49.6229 88.5999 49.6395 88.4346 49.6727C87.4882 49.7889 83.0911 50.0711 82.1287 50.1707C81.5314 50.2537 80.9838 50.3533 80.387 50.4198C80.1049 50.4696 79.955 50.4358 79.8887 50.2869C79.8228 50.1375 79.8887 49.9549 80.1044 49.8055C80.4694 49.5399 80.8511 49.2908 81.2493 49.0418C82.1121 48.4774 82.9749 47.8963 83.8544 47.3485C83.9041 47.3153 83.9711 47.2322 84.054 47.1824C84.0374 47.1658 84.0369 47.116 84.0203 47.0994C83.4727 47.1824 82.9252 47.2323 82.3776 47.3319C81.5153 47.4979 80.9008 48.0291 80.4196 48.7596C80.408 48.7812 80.3948 48.8005 80.3826 48.8188C80.3638 48.9046 80.2891 48.997 80.126 49.0584C79.7111 49.2908 79.2792 49.4901 78.7985 49.5399C78.2012 49.6063 77.9025 49.3235 77.8859 48.743C77.8859 48.6102 77.9025 48.51 77.9031 48.3778C77.9031 47.9129 77.9689 47.6639 77.5209 47.9627C77.0729 48.2117 76.5253 48.6102 76.0773 48.8592C75.9279 48.9583 75.7454 49.0252 75.5795 49.0584C75.2316 49.158 75.0153 49.0247 74.8992 48.6766C74.7498 48.3113 74.866 48.1121 74.4683 48.3944C74.0369 48.7264 73.5718 49.2908 73.1404 49.6395C73.0408 49.7225 72.9578 49.8055 72.8417 49.8719C72.6431 49.9378 72.4932 49.8221 72.5264 49.6063C72.543 49.5067 72.5762 49.4403 72.6426 49.3407C72.6525 49.3202 72.663 49.2997 72.673 49.2792C71.9711 49.6572 70.9556 49.9162 70.9556 49.0418C70.9556 48.8592 70.9888 48.6766 71.022 48.4608C70.4578 48.8094 69.9269 49.1746 69.3461 49.4735C69.2134 49.5731 69.0308 49.5897 68.8815 49.6063C68.6658 49.6395 68.4667 49.5725 68.3671 49.3905C68.251 49.1912 68.3008 49.0086 68.4169 48.8426C68.5165 48.7098 68.6 48.6096 68.7322 48.494C69.3129 47.9959 69.9932 47.7303 70.7897 47.7967C70.9058 47.8133 71.0386 47.7796 71.1381 47.6639C71.2875 47.5145 71.4368 47.3479 71.5862 47.199C71.6354 47.1326 71.7023 47.0496 71.7687 47.033C71.835 47.0164 71.9512 47.0164 72.0176 47.0496C72.0673 47.116 72.1005 47.1996 72.0839 47.2987C72.0673 47.4149 72.0176 47.5145 71.9512 47.6307C71.8179 47.9135 70.9562 49.5061 71.9678 49.2078C72.2333 49.1414 72.5485 48.9422 72.8638 48.7928C72.8887 48.7828 72.9147 48.7679 72.9418 48.7529C73.095 48.4558 73.2521 48.157 73.4224 47.8465C73.439 47.7801 73.4728 47.6805 73.5225 47.6473C73.5889 47.5975 73.6885 47.5477 73.7548 47.5809C73.8041 47.598 73.8704 47.6971 73.8704 47.7796C73.8373 47.8958 73.7875 47.9959 73.7548 48.0955C73.6713 48.2616 73.3893 48.7596 73.3727 48.9588C73.5552 48.8426 73.9368 48.3612 74.1359 48.2283C74.2687 48.1287 74.4014 48.0623 74.5341 47.9959C74.8992 47.8465 75.1652 47.9793 75.298 48.3612C75.314 48.4276 75.3306 48.5106 75.3472 48.577C75.5131 48.66 75.6459 48.577 75.7786 48.5106C76.2427 48.2449 76.6746 47.9793 77.1392 47.7469C77.3212 47.6473 77.5375 47.5477 77.7366 47.5145C78.0518 47.4481 78.2841 47.5809 78.3339 47.9129C78.3837 48.1121 78.3837 48.3446 78.3505 48.5438C78.3007 49.0413 78.5336 49.1575 78.9644 49.0247C79.2609 48.9588 79.6547 48.7635 79.9362 48.6628C79.9423 48.6511 79.9479 48.6384 79.955 48.6268C80.3699 47.7967 81.0502 47.2156 82.0126 46.9666C82.4274 46.867 82.8588 46.784 83.3068 46.7342C83.7548 46.6512 84.2034 46.618 84.6514 46.5682ZM112.23 48.7928C111.468 49.7053 112.447 50.1536 112.878 49.2078C112.53 49.2078 112.297 49.1077 112.23 48.7928ZM92.7365 47.033C92.8029 47.0164 92.9191 47.0164 92.9854 47.0496C93.0352 47.116 93.0684 47.1996 93.0518 47.2987C93.0352 47.4149 92.9854 47.5145 92.9191 47.6307C92.7858 47.9135 91.924 49.5061 92.9357 49.2078C93.2011 49.1414 93.5164 48.9422 93.8317 48.7928C93.9146 48.759 94.0142 48.6766 94.1137 48.6932C94.2299 48.7264 94.3129 48.8592 94.1635 48.9256C93.6657 49.3905 91.924 50.1868 91.9235 49.0418C91.9235 48.8592 91.9567 48.6766 91.9898 48.4608C91.4257 48.8094 90.8947 49.1746 90.314 49.4735C90.1812 49.5731 89.9987 49.5897 89.8494 49.6063C89.6337 49.6395 89.4345 49.5725 89.335 49.3905C89.2194 49.1912 89.2692 49.0086 89.3848 48.8426C89.4843 48.7098 89.5678 48.6096 89.7006 48.494C90.2808 47.9959 90.9616 47.7303 91.7576 47.7967C91.8737 47.8133 92.0065 47.7796 92.106 47.6639C92.2553 47.5145 92.4047 47.3479 92.554 47.199C92.6038 47.1326 92.6702 47.0496 92.7365 47.033ZM70.7067 48.1287C70.043 48.1785 69.2134 48.5604 68.8317 49.1248C69.4788 49.0086 70.2587 48.5604 70.7067 48.1287ZM91.6746 48.1287C91.0109 48.1785 90.1812 48.5604 89.7996 49.1248C90.4467 49.0086 91.2266 48.5604 91.6746 48.1287ZM113.641 47.6971C113.227 47.8299 112.96 48.0623 112.778 48.3778C112.728 48.4602 112.712 48.5604 112.828 48.6434C112.96 48.7762 113.259 48.759 113.343 48.577C113.475 48.3944 113.575 48.1614 113.641 47.9627C113.674 47.929 113.641 47.8294 113.641 47.6971ZM124.89 45.9705C125.072 45.9705 125.172 46.1033 125.139 46.2528C125.089 46.4188 124.856 46.6512 124.641 46.784C124.326 46.9661 124.209 46.9495 124.292 46.5344C124.325 46.2694 124.508 45.9705 124.89 45.9705ZM108.366 42.6663C107.652 43.1643 107.005 43.7127 106.424 44.327C107.071 43.9783 108.199 42.9983 108.366 42.6663ZM0.553649 33.0432H32.7569V0.553386H0.553649V33.0432ZM33.31 33.0432H199.552H365.794V0.553386H33.31V33.0432ZM27.4226 27.5078L27.0315 27.899L5.94362 6.80006L6.33466 6.40882L27.4226 27.5078ZM60.3389 19.5377H60.3948L62.0353 15.5289H62.7333V20.3586H62.1863V16.6892H62.1393L60.631 20.3586H60.1028L58.5945 16.6892H58.5469V20.3586H58.0005V15.5289H58.6985L60.3389 19.5377ZM70.8007 16.0477H68.4722V17.6797H70.6498V18.1985H68.4722V19.8398H70.8384V20.3586H67.8876V15.5289H70.8007V16.0477ZM78.7498 16.0477H76.4213V17.6797H78.5988V18.1985H76.4213V19.8398H78.7875V20.3586H75.8361V15.5289H78.7498V16.0477ZM86.6801 16.0477H84.3699V17.6797H86.4628V18.1985H84.3699V20.3586H83.7852V15.5289H86.6801V16.0477ZM92.2476 19.8398H94.4915V20.3586H91.663V15.5289H92.2476V19.8398ZM102.292 16.0477H99.9633V17.6797H102.141V18.1985H99.9633V19.8398H102.33V20.3586H99.3792V15.5289H102.292V16.0477ZM110.241 16.0477H107.912V17.6797H110.09V18.1985H107.912V19.8398H110.279V20.3586H107.328V15.5289H110.241V16.0477ZM118.633 16.0477H117.115V20.3586H116.531V16.0477H115.013V15.5289H118.633V16.0477Z"/>
</mask>
<path d="M366.347 97.0868H0V0H366.347V97.0868ZM0.553649 96.5334H32.7569V33.5966H0.553649V96.5334ZM33.31 96.5334H365.794V64.0435H33.31V96.5334ZM70.2001 79.3419C70.4075 79.3419 70.5917 79.379 70.7532 79.4537C70.9141 79.5267 71.0425 79.6274 71.1365 79.7553C71.2316 79.8831 71.2819 80.0281 71.2875 80.1908H70.9103C70.8915 80.0314 70.8146 79.908 70.6807 79.82C70.5469 79.732 70.3821 79.6878 70.1874 79.6878C70.0452 79.6878 69.9202 79.7105 69.8135 79.7569C69.7073 79.8029 69.6249 79.8665 69.5651 79.9468C69.5065 80.0275 69.4772 80.1194 69.4772 80.2218C69.4772 80.3081 69.4977 80.3823 69.538 80.4442C69.5801 80.5051 69.6337 80.5555 69.699 80.5964C69.7637 80.6363 69.8317 80.6695 69.9031 80.6955C69.9739 80.7204 70.0397 80.7409 70.0994 80.7564L70.4263 80.8443C70.5098 80.8665 70.6033 80.8969 70.7062 80.9362C70.8096 80.9749 70.9091 81.0275 71.0032 81.095C71.0983 81.1609 71.1769 81.2455 71.2388 81.3496C71.3002 81.4531 71.3317 81.5803 71.3317 81.7314C71.3317 81.9052 71.2853 82.0629 71.1945 82.2035C71.1044 82.3435 70.9722 82.4547 70.7985 82.5377C70.6254 82.6207 70.4158 82.6622 70.1686 82.6622C69.9379 82.6622 69.7383 82.6251 69.5696 82.5504C69.402 82.4763 69.2698 82.3722 69.1735 82.2394C69.0784 82.1066 69.0248 81.9517 69.012 81.7757H69.4141C69.4246 81.8969 69.4656 81.9976 69.5369 82.0773C69.6088 82.1559 69.7006 82.2145 69.8107 82.2533C69.9213 82.2909 70.0408 82.3103 70.1686 82.3103C70.3173 82.3103 70.4512 82.2859 70.5696 82.2378C70.6874 82.1885 70.7814 82.1205 70.8505 82.0336C70.9197 81.9456 70.954 81.8421 70.954 81.7248C70.954 81.6185 70.9241 81.5316 70.8649 81.4647C70.8052 81.3972 70.7261 81.3424 70.6287 81.3009C70.5314 81.2588 70.4258 81.2218 70.3129 81.1902L69.9169 81.0773C69.6658 81.0054 69.4667 80.9019 69.3201 80.768C69.1735 80.6335 69.1 80.4581 69.1 80.2411C69.1005 80.0607 69.1487 79.9036 69.246 79.7697C69.3445 79.6346 69.4766 79.5295 69.642 79.4553C69.8085 79.3795 69.9949 79.3419 70.2001 79.3419ZM75.6763 79.3419C75.8837 79.3419 76.0679 79.379 76.2294 79.4537C76.3909 79.5267 76.5187 79.6274 76.6127 79.7553C76.7084 79.8831 76.7581 80.0281 76.7637 80.1908H76.3865C76.3677 80.0314 76.2913 79.908 76.1569 79.82C76.0231 79.732 75.8588 79.6878 75.6641 79.6878C75.5214 79.6878 75.397 79.7105 75.2902 79.7569C75.1846 79.8029 75.1016 79.8665 75.0419 79.9468C74.9833 80.0275 74.954 80.1194 74.9534 80.2218C74.9534 80.3081 74.9744 80.3823 75.0154 80.4442C75.0574 80.5046 75.1105 80.5555 75.1752 80.5964C75.2399 80.6363 75.3079 80.6695 75.3793 80.6955C75.4506 80.7204 75.5165 80.7409 75.5756 80.7564L75.9025 80.8443C75.9866 80.8665 76.0801 80.8969 76.1824 80.9362C76.2864 80.9749 76.3854 81.0275 76.4794 81.095C76.5745 81.1609 76.6531 81.2455 76.715 81.3496C76.777 81.4531 76.8079 81.5803 76.8079 81.7314C76.8079 81.9052 76.7626 82.0629 76.6713 82.2035C76.5812 82.3435 76.449 82.4547 76.2753 82.5377C76.1027 82.6207 75.892 82.6622 75.6448 82.6622C75.4147 82.6622 75.215 82.6251 75.0463 82.5504C74.8793 82.4763 74.7471 82.3722 74.6508 82.2394C74.5552 82.1066 74.501 81.9517 74.4888 81.7757H74.8909C74.9014 81.8974 74.9423 81.9976 75.0137 82.0773C75.0861 82.1559 75.1769 82.2145 75.2869 82.2533C75.3981 82.2909 75.5176 82.3103 75.6448 82.3103C75.7936 82.3103 75.9274 82.2859 76.0458 82.2378C76.1641 82.1885 76.2581 82.1205 76.3273 82.0336C76.3964 81.9456 76.4307 81.8421 76.4307 81.7248C76.4307 81.618 76.4008 81.5316 76.3411 81.4647C76.2814 81.3972 76.2028 81.3424 76.1055 81.3009C76.0081 81.2588 75.9031 81.2218 75.7897 81.1902L75.3937 81.0773C75.1426 81.0054 74.9429 80.9019 74.7963 80.768C74.6497 80.6335 74.5767 80.4581 74.5767 80.2411C74.5767 80.0607 74.6254 79.9036 74.7227 79.7697C74.8212 79.6346 74.9534 79.5295 75.1188 79.4553C75.2852 79.3795 75.4711 79.3419 75.6763 79.3419ZM85.2238 79.3419C85.4982 79.3419 85.7426 79.4089 85.9561 79.5433C86.1696 79.6773 86.3383 79.8682 86.4606 80.1155C86.5833 80.3629 86.6442 80.6562 86.6442 80.996C86.6442 81.3352 86.5833 81.629 86.4606 81.8764C86.3383 82.1238 86.1696 82.3147 85.9561 82.4486C85.7426 82.5825 85.4982 82.6495 85.2238 82.6495C84.9495 82.6495 84.7056 82.5825 84.4921 82.4486C84.278 82.3147 84.1099 82.1238 83.9871 81.8764C83.8649 81.629 83.804 81.3352 83.8035 80.996C83.8035 80.6562 83.8649 80.3629 83.9871 80.1155C84.1099 79.8682 84.278 79.6773 84.4921 79.5433C84.7056 79.4094 84.9495 79.3419 85.2238 79.3419ZM101.123 79.3419C101.292 79.3419 101.45 79.3679 101.597 79.4188C101.744 79.4692 101.876 79.5411 101.991 79.6341C102.107 79.7265 102.204 79.8372 102.282 79.9661C102.36 80.094 102.413 80.2362 102.442 80.3922H102.04C102.006 80.2865 101.96 80.1913 101.904 80.1072C101.848 80.0226 101.781 79.9506 101.704 79.8909C101.627 79.8311 101.54 79.7852 101.443 79.7536C101.345 79.7221 101.239 79.7066 101.123 79.7066C100.932 79.7066 100.759 79.7558 100.603 79.8543C100.446 79.9528 100.322 80.0978 100.23 80.2898C100.138 80.4813 100.092 80.7171 100.092 80.996C100.092 81.2749 100.138 81.5101 100.232 81.7015C100.324 81.8936 100.451 82.0385 100.61 82.137C100.769 82.2355 100.948 82.2848 101.147 82.2848C101.332 82.2848 101.494 82.2455 101.635 82.1669C101.776 82.0872 101.886 81.9749 101.964 81.8305C102.041 81.691 102.079 81.5283 102.083 81.3418H101.235V80.996H102.461V81.3418C102.461 81.6069 102.405 81.8377 102.291 82.0336C102.18 82.2295 102.024 82.3811 101.826 82.489C101.629 82.5958 101.403 82.6495 101.147 82.6495C100.863 82.6495 100.612 82.5825 100.396 82.4486C100.182 82.3147 100.014 82.1238 99.8936 81.8764C99.7741 81.629 99.7144 81.3352 99.7144 80.996C99.7144 80.7414 99.7487 80.5118 99.8167 80.3087C99.8858 80.1045 99.9832 79.9307 100.109 79.7868C100.234 79.6435 100.384 79.5334 100.556 79.457C100.727 79.3801 100.916 79.3419 101.123 79.3419ZM43.5724 79.3862C43.8252 79.3862 44.0315 79.4315 44.1913 79.5229C44.3528 79.6131 44.4723 79.7354 44.5497 79.8892C44.6271 80.043 44.6664 80.2151 44.6664 80.405C44.6664 80.5942 44.6271 80.7669 44.5497 80.9218C44.4734 81.0768 44.355 81.2002 44.1946 81.2926C44.0342 81.3839 43.829 81.4298 43.5785 81.4298H42.8744V82.6058H42.485V79.3862H43.5724ZM49.891 79.732H48.3379V80.82H49.7897V81.1659H48.3379V82.2599H49.9159V82.6058H47.9485V79.3862H49.891V79.732ZM54.3351 79.3862C54.5862 79.3862 54.793 79.4288 54.954 79.5146C55.1155 79.5998 55.2355 79.7165 55.313 79.8654C55.3904 80.0143 55.4291 80.1836 55.4291 80.3734C55.4291 80.5627 55.3904 80.7309 55.313 80.8775C55.2355 81.0242 55.1161 81.1399 54.9557 81.2234C54.9158 81.2439 54.8732 81.2621 54.8279 81.2776L55.5547 82.6058H55.1022L54.4219 81.344C54.3959 81.3452 54.3688 81.3479 54.3417 81.3479H53.6376V82.6058H53.2477V79.3862H54.3351ZM60.2919 82.0585H60.3295L61.4236 79.3862H61.8882V82.6058H61.5237V80.1593H61.4927L60.4866 82.6058H60.1348L59.1288 80.1593H59.0978V82.6058H58.7327V79.3862H59.1979L60.2919 82.0585ZM65.7139 82.6058H65.3245V79.3862H65.7139V82.6058ZM80.4932 82.6058H80.1033V79.3862H80.4932V82.6058ZM92.0916 81.9201H92.1226V79.3862H92.5064V82.6058H92.1292L90.3754 80.0779H90.3444V82.6058H89.955V79.3862H90.3317L92.0916 81.9201ZM106.871 79.3862C107.122 79.3862 107.328 79.4288 107.49 79.5146C107.651 79.5998 107.771 79.7165 107.848 79.8654C107.926 80.0143 107.964 80.1836 107.964 80.3734C107.964 80.5627 107.926 80.7309 107.848 80.8775C107.771 81.0242 107.651 81.1399 107.491 81.2234C107.451 81.2439 107.409 81.2621 107.363 81.2776L108.09 82.6058H107.637L106.958 81.344C106.931 81.3452 106.905 81.3479 106.877 81.3479H106.173V82.6058H105.784V79.3862H106.871ZM113.757 82.6058H113.349L113.025 81.6938H111.724L111.401 82.6058H110.992L112.173 79.3862H112.576L113.757 82.6058ZM119.051 81.9201H119.082V79.3862H119.465V82.6058H119.088L117.334 80.0779H117.303V82.6058H116.914V79.3862H117.291L119.051 81.9201ZM125.137 79.732H124.126V82.6058H123.736V79.732H122.724V79.3862H125.137V79.732ZM130.336 79.732H128.783V80.82H130.235V81.1659H128.783V82.2599H130.361V82.6058H128.394V79.3862H130.336V79.732ZM134.73 79.3862C135.042 79.3862 135.309 79.4504 135.532 79.5793C135.754 79.7071 135.924 79.8914 136.042 80.131C136.161 80.3701 136.22 80.6562 136.22 80.9893C136.22 81.3247 136.16 81.6136 136.041 81.8559C135.921 82.0967 135.747 82.2826 135.519 82.4121C135.291 82.541 135.013 82.6058 134.687 82.6058H133.693V79.3862H134.73ZM85.2238 79.7066C85.0291 79.7066 84.8527 79.7558 84.6945 79.8543C84.5374 79.9528 84.4124 80.0978 84.319 80.2898C84.2266 80.4813 84.1807 80.7171 84.1807 80.996C84.1807 81.2749 84.2266 81.5101 84.319 81.7015C84.4124 81.8936 84.5374 82.0385 84.6945 82.137C84.8527 82.2355 85.0291 82.2848 85.2238 82.2848C85.4185 82.2848 85.595 82.2355 85.752 82.137C85.9102 82.0385 86.0352 81.8936 86.1276 81.7015C86.2205 81.5101 86.2675 81.2749 86.2675 80.996C86.2675 80.7171 86.2205 80.4813 86.1276 80.2898C86.0352 80.0978 85.9102 79.9528 85.752 79.8543C85.595 79.7558 85.4185 79.7066 85.2238 79.7066ZM134.083 82.2599H134.661C134.927 82.2599 135.148 82.2079 135.323 82.1055C135.497 82.0026 135.628 81.8565 135.714 81.6672C135.799 81.4774 135.843 81.2516 135.843 80.9893C135.843 80.7298 135.8 80.5057 135.715 80.3181C135.63 80.1294 135.504 79.9849 135.335 79.8842C135.167 79.7824 134.957 79.732 134.705 79.732H134.083V82.2599ZM111.847 81.3479H112.903L112.387 79.8953H112.362L111.847 81.3479ZM42.8744 81.084H43.5658C43.7389 81.084 43.8777 81.0541 43.9822 80.9943C44.0873 80.9346 44.1631 80.8538 44.2101 80.7519C44.2588 80.6496 44.2826 80.5333 44.2826 80.405C44.2826 80.276 44.2588 80.1604 44.2101 80.0591C44.1631 79.9573 44.0868 79.8776 43.9806 79.82C43.8749 79.7614 43.735 79.732 43.5602 79.732H42.8744V81.084ZM53.6376 80.996H54.329C54.501 80.996 54.6393 80.9705 54.7438 80.9202C54.85 80.8698 54.9258 80.7984 54.9728 80.706C55.0215 80.613 55.0453 80.5024 55.0453 80.3734C55.0453 80.2445 55.0215 80.1316 54.9728 80.0353C54.9247 79.939 54.8484 79.8643 54.7422 79.8117C54.6365 79.7586 54.4966 79.732 54.3229 79.732H53.6376V80.996ZM106.173 80.996H106.865C107.036 80.996 107.175 80.9705 107.28 80.9202C107.385 80.8698 107.462 80.7984 107.509 80.706C107.557 80.613 107.581 80.5024 107.581 80.3734C107.581 80.2445 107.557 80.1316 107.509 80.0353C107.461 79.939 107.384 79.8643 107.278 79.8117C107.172 79.7586 107.032 79.732 106.858 79.732H106.173V80.996ZM15.9274 78.1328C16.1144 78.1328 16.2792 78.1732 16.4222 78.2539C16.5652 78.3347 16.6768 78.4515 16.7565 78.6048C16.8362 78.757 16.8759 78.9412 16.8759 79.1576V79.6584H17.7893V80.2539H14.973V79.1421C14.973 78.9285 15.0141 78.7465 15.0956 78.5959C15.1763 78.4454 15.2888 78.3309 15.4326 78.2523C15.5756 78.1726 15.7405 78.1328 15.9274 78.1328ZM15.9274 78.7459C15.834 78.7459 15.7524 78.7647 15.6828 78.8023C15.6122 78.8389 15.5576 78.8953 15.5191 78.9706C15.4797 79.0458 15.4602 79.141 15.4602 79.2561V79.6584H16.399V79.2534C16.399 79.1394 16.3794 79.0447 16.3401 78.9706C16.2998 78.8953 16.2443 78.8389 16.1737 78.8023C16.1022 78.7647 16.02 78.7459 15.9274 78.7459ZM17.7893 73.8573L16.7911 74.3902V74.8257H17.7893V75.4217H14.973V74.31C14.973 74.0969 15.0115 73.9154 15.0875 73.7649C15.1627 73.6138 15.2694 73.4987 15.4078 73.4196C15.5452 73.3399 15.7069 73.3006 15.8929 73.3006C16.0798 73.3006 16.241 73.341 16.3757 73.4212C16.5095 73.502 16.6121 73.6193 16.6836 73.7721C16.6875 73.7804 16.6907 73.7892 16.6944 73.7975L17.7893 73.1999V73.8573ZM15.8929 73.9137C15.7996 73.9137 15.7209 73.9326 15.6568 73.9702C15.5927 74.0067 15.544 74.0637 15.511 74.1395C15.4771 74.2148 15.4602 74.3094 15.4602 74.424V74.8257H16.3125V74.4212C16.3125 74.3078 16.2967 74.2131 16.2656 74.1379C16.2344 74.0631 16.1879 74.0067 16.1257 73.9702C16.0633 73.9326 15.9854 73.9137 15.8929 73.9137ZM17.7887 70.5552H14.973V68.6566H15.464V69.9598H16.1349V68.7545H16.6258V69.9598H17.2983V68.651H17.7887V70.5552ZM17.7887 63.3828H15.956V63.4066L17.7752 64.1354V64.5289L15.9496 65.2577V65.2809H17.7887V65.8587H14.973V65.1243L16.8651 64.3485V64.3153L14.973 63.54V62.8051H17.7887V63.3828ZM33.31 63.4902H365.794V33.5966H199.552H33.31V63.4902ZM17.7887 59.9906H14.973V59.3946H17.7887V59.9906ZM16.8019 54.2447C17.0072 54.2447 17.187 54.2934 17.3409 54.392C17.4949 54.4888 17.6151 54.6255 17.7012 54.8004C17.7864 54.9752 17.8287 55.18 17.8287 55.4124C17.8287 55.6465 17.7864 55.8507 17.7012 56.0261C17.6151 56.201 17.4949 56.3371 17.3409 56.4345C17.187 56.5319 17.0072 56.5806 16.8019 56.5806H14.973V55.9851H16.7511C16.8582 55.9851 16.9535 55.9614 17.0368 55.9149C17.1203 55.8667 17.1858 55.7998 17.2335 55.7134C17.2811 55.6277 17.3047 55.5269 17.3048 55.4124C17.3048 55.2973 17.2811 55.1966 17.2335 55.1114C17.1858 55.025 17.1203 54.9586 17.0368 54.9116C16.9535 54.864 16.8582 54.8402 16.7511 54.8402H14.973V54.2447H16.8019ZM68.7709 42.4997C68.8373 42.384 68.9036 42.2352 69.0856 42.3176C69.2183 42.384 69.2183 42.55 69.1193 42.7327C68.887 43.1477 68.6376 43.5633 68.3721 43.9617C67.4263 45.4393 66.4639 46.8836 65.5181 48.3446C65.4518 48.411 65.4186 48.5277 65.3356 48.66C66.2482 48.6766 67.1111 48.6932 67.9573 48.9588V49.0247C67.5259 49.0413 67.1276 49.1243 66.6968 49.1409C66.2156 49.1741 65.7338 49.1746 65.2361 49.1746C65.0369 49.1746 64.9208 49.2576 64.8046 49.4237C63.6929 51.0838 62.548 52.7606 61.4202 54.4202C61.1879 54.7522 60.9219 55.0848 60.6896 55.4168C60.5408 55.6326 60.3743 55.699 60.2256 55.5994C60.0762 55.5164 60.0591 55.3504 60.1918 55.1014C60.308 54.8026 60.5071 54.5867 60.7228 54.3543C61.0712 54.0057 61.3533 53.5906 61.6354 53.1922C62.4982 51.9305 63.3279 50.6688 64.1741 49.4237C64.2073 49.3573 64.241 49.2903 64.3069 49.2078C64.1913 49.1912 64.1243 49.1746 64.058 49.1746C63.4274 49.1746 62.7969 49.1912 62.1498 49.1746C61.9507 49.1746 61.8179 49.2576 61.735 49.4237C61.287 50.0877 60.8389 50.785 60.3743 51.4324C60.1089 51.8475 59.777 52.1795 59.4783 52.5448C59.3456 52.744 59.1963 52.91 59.0635 53.076C58.9313 52.9764 59.0137 52.843 59.0635 52.76C59.329 52.3123 59.5613 51.8475 59.8434 51.4158C60.2914 50.702 60.7394 50.0379 61.204 49.3407C61.2206 49.3074 61.2206 49.2737 61.2704 49.2078C61.1708 49.2078 61.121 49.1912 61.0381 49.1912C59.9761 49.1912 58.9142 49.1912 57.8528 49.2078C56.3096 49.2576 54.766 49.3074 53.2062 49.3573C52.6753 49.3573 52.1775 49.4071 51.6465 49.4237C51.5303 49.4237 51.3318 49.4397 51.3312 49.2576C51.3152 49.075 51.4811 49.0252 51.6304 49.0086C52.0447 48.9754 52.4595 48.8924 52.8412 48.8924C54.4839 48.826 56.11 48.7756 57.7195 48.7258C58.9308 48.6926 60.1586 48.6766 61.3699 48.6766C61.5856 48.6766 61.7184 48.5936 61.8179 48.411C62.6973 47.1326 63.5934 45.8543 64.4728 44.5594C64.7715 44.161 65.0369 43.762 65.3688 43.3469C65.4352 43.2307 65.5353 43.0979 65.767 43.1643C65.7173 43.3137 65.6841 43.4465 65.6011 43.5461C65.2361 44.1272 64.8544 44.7088 64.4728 45.2893C63.7759 46.3518 63.0458 47.4149 62.3489 48.4774C62.3323 48.5272 62.2991 48.5609 62.2659 48.66H64.4562C64.6221 48.66 64.7051 48.593 64.8046 48.4442C65.6675 47.1824 66.5137 45.9041 67.3599 44.6092C67.8245 43.9285 68.3063 43.2136 68.7709 42.4997ZM108.847 41.9524C108.996 41.9026 109.112 41.9031 109.212 42.0022C109.311 42.1018 109.295 42.2346 109.212 42.3508C108.996 42.6165 108.813 42.8821 108.564 43.1145C107.652 43.9944 106.623 44.7586 105.561 45.4393C104.898 45.8709 104.35 46.4188 103.853 47.033C102.641 48.4442 101.529 49.9715 100.5 51.5321C100.119 52.1297 99.804 52.7772 99.4721 53.3914C99.4058 53.5408 99.3554 53.7235 99.2896 53.9227C99.273 54.1385 99.3726 54.3045 99.5883 54.3543C99.7868 54.4041 99.9533 54.4368 100.136 54.4202C100.932 54.3704 101.728 54.3377 102.525 54.2215C104.284 53.9725 106.026 53.6571 107.785 53.3914C108.979 53.1922 110.191 53.1092 111.402 53.0262C111.634 53.0262 111.866 53.0428 112.115 53.0926C112.248 53.1092 112.348 53.1756 112.298 53.408C111.518 53.491 110.738 53.5408 109.942 53.6239C109.228 53.6737 108.482 53.7733 107.785 53.8563C106.706 54.0057 105.644 54.2049 104.582 54.3709C103.537 54.5369 102.475 54.6864 101.38 54.8026C101.123 54.8358 100.857 54.8479 100.592 54.8524H99.7044C99.0241 54.7694 98.7089 54.3377 98.8914 53.6903C99.0241 53.2752 99.1901 52.8934 99.4052 52.5116C100.119 51.2166 100.966 50.0213 101.845 48.826C102.227 48.328 102.608 47.8797 102.939 47.3817C103.022 47.3153 103.056 47.2323 103.072 47.116C102.873 47.2489 102.641 47.3817 102.425 47.5145C101.447 48.1287 100.467 48.7264 99.455 49.3407C99.1065 49.5399 98.7083 49.6893 98.3101 49.8547C98.2105 49.9046 98.0778 49.9378 97.929 49.8055C97.9948 49.7557 98.0452 49.6893 98.1115 49.6561C99.82 48.8094 101.414 47.7137 103.04 46.701C103.952 46.1531 104.699 45.4227 105.445 44.659C106.241 43.8289 107.088 43.0315 108.05 42.3674C108.233 42.2346 108.432 42.135 108.631 42.0188C108.714 41.9856 108.797 41.969 108.847 41.9524ZM118.951 42.8987C119.017 42.7659 119.183 42.617 119.316 42.7327C119.365 42.7659 119.382 42.9153 119.382 42.9983C119.366 43.0813 119.266 43.1809 119.233 43.2473C118.735 43.928 118.967 43.6961 118.321 44.6424C119.266 44.8084 121.407 44.7752 123.083 44.5926C123.614 44.5428 124.095 44.493 124.41 44.5096C124.957 44.5428 124.874 44.7918 124.41 44.8914C123.198 45.1072 119.084 45.074 118.038 45.0408C117.275 46.0037 116.362 47.4481 115.881 48.3612C115.483 49.1414 114.936 50.4524 116.014 50.0047C116.495 49.8221 117.308 49.2742 117.822 48.8426C117.91 48.7845 117.973 48.7137 118.054 48.6633C118.104 48.5737 118.209 48.5045 118.383 48.494C118.765 48.4442 118.814 48.6096 119.014 48.2449C119.661 47.1824 120.341 46.3856 121.171 45.5555C121.287 45.4393 121.403 45.3231 121.536 45.2401C121.619 45.1737 121.685 45.1404 121.768 45.0906C122.033 45.0076 122.299 45.2567 122.249 45.6053C122.216 45.8211 122.166 46.0369 122.067 46.2029C121.585 47.0164 121.021 47.7303 120.324 48.2449C120.192 48.3612 120.042 48.4436 119.827 48.1785C120.54 47.5145 121.237 46.8001 121.718 45.8206C121.287 45.9871 119.827 47.7469 119.412 48.5604C120.49 48.743 121.984 48.6268 122.896 48.4774C122.941 48.4718 122.983 48.4724 123.021 48.4851C123.234 48.1055 123.408 47.6423 123.662 47.2987C123.877 47.0164 124.408 47.3153 124.06 47.7796C123.844 48.1282 123.612 48.4608 123.396 48.826C122.733 50.1868 124.574 49.225 124.923 48.8426C125.371 48.3612 125.67 48.909 125.288 49.1082C124.807 49.3738 124.309 49.6395 123.761 49.7723C123.595 49.7889 123.396 49.8055 123.23 49.7723C122.932 49.7225 122.766 49.4397 122.816 49.158C122.816 49.0872 122.818 49.0108 122.828 48.9356C122.173 48.8946 121.59 48.9151 121.038 49.0418C121.104 49.7385 120.789 50.3533 120.491 50.801C119.794 51.8137 118.931 52.661 117.935 53.2752C117.769 53.3582 117.57 53.4246 117.354 53.491C116.956 53.5569 116.675 53.2083 116.74 52.7274C116.79 52.5448 116.84 52.3621 116.923 52.1961C117.437 51.1336 117.985 50.0047 118.383 49.158C118.309 49.1547 118.244 49.1326 118.191 49.0983C117.782 49.4214 116.811 50.0888 116.047 50.3533C114.774 50.7922 114.925 49.7092 115.192 48.9284C115.076 48.9489 114.962 48.9655 114.836 48.9754C114.421 49.0584 114.006 49.1082 113.608 49.1912C113.491 49.2078 113.392 49.2576 113.309 49.3573C112.845 49.7889 112.612 50.0877 112.197 50.2205C111.6 50.4026 110.986 50.0047 111.8 48.7098C112.082 48.2616 112.496 47.9129 112.928 47.5643C113.11 47.4315 113.293 47.3153 113.558 47.2987C113.923 47.2655 114.139 47.4315 114.123 47.7967C114.123 47.9627 114.023 48.1619 113.99 48.3612C113.94 48.4608 113.89 48.5604 113.824 48.7098C114.089 48.66 114.338 48.6434 114.57 48.5936C114.753 48.5604 115.052 48.5266 115.251 48.494C115.298 48.494 115.331 48.4945 115.361 48.4967C115.882 47.2876 116.854 46.0198 117.458 45.0574C116.728 45.074 115.915 45.0906 115.301 45.0906C114.787 45.1571 114.736 44.9252 114.77 44.8582C114.836 44.7586 114.952 44.6258 115.417 44.659C116.147 44.7254 116.96 44.7254 117.723 44.6258C117.756 44.6092 117.79 44.576 117.806 44.5428C118.42 43.6795 118.321 43.7288 118.951 42.8987ZM120.606 49.0584C120.042 49.1746 119.113 48.9422 118.881 49.241C118.698 49.474 118.333 50.3196 118.201 50.5692C117.885 51.2493 117.587 51.9471 117.255 52.6278C117.222 52.6942 117.222 52.8104 117.205 52.8762C117.205 52.926 117.238 52.9432 117.255 52.9598C117.404 52.8934 117.587 52.8602 117.736 52.7938C118.798 52.1297 119.661 51.1829 120.391 50.0379C120.474 49.8713 120.606 49.3905 120.606 49.0584ZM17.7887 48.9544H15.956V48.9776L17.7752 49.7064V50.0999L15.9496 50.8293V50.8525H17.7887V51.4302H14.973V50.6959L16.8651 49.92V49.8868L14.973 49.111V48.3767H17.7887V48.9544ZM84.6514 46.5682C84.7509 46.5516 84.8339 46.5184 84.8837 46.5516C84.9827 46.5848 85.0988 46.6346 85.1486 46.7176C85.2316 46.8006 85.1818 46.95 85.0988 47.033C85.0159 47.0994 84.9495 47.1824 84.8499 47.2322C84.0867 47.7469 83.3073 48.2781 82.5275 48.7762C82.0961 49.075 81.6309 49.3739 81.1829 49.6561C81.1503 49.6727 81.1331 49.7059 81.1165 49.8055C81.4318 49.7723 81.7476 49.7557 82.0463 49.6893C82.8593 49.6063 87.1398 49.3074 87.9528 49.2078C88.2847 49.1912 88.6165 49.158 88.8986 49.4735C88.7659 49.6229 88.5999 49.6395 88.4346 49.6727C87.4882 49.7889 83.0911 50.0711 82.1287 50.1707C81.5314 50.2537 80.9838 50.3533 80.387 50.4198C80.1049 50.4696 79.955 50.4358 79.8887 50.2869C79.8228 50.1375 79.8887 49.9549 80.1044 49.8055C80.4694 49.5399 80.8511 49.2908 81.2493 49.0418C82.1121 48.4774 82.9749 47.8963 83.8544 47.3485C83.9041 47.3153 83.9711 47.2322 84.054 47.1824C84.0374 47.1658 84.0369 47.116 84.0203 47.0994C83.4727 47.1824 82.9252 47.2323 82.3776 47.3319C81.5153 47.4979 80.9008 48.0291 80.4196 48.7596C80.408 48.7812 80.3948 48.8005 80.3826 48.8188C80.3638 48.9046 80.2891 48.997 80.126 49.0584C79.7111 49.2908 79.2792 49.4901 78.7985 49.5399C78.2012 49.6063 77.9025 49.3235 77.8859 48.743C77.8859 48.6102 77.9025 48.51 77.9031 48.3778C77.9031 47.9129 77.9689 47.6639 77.5209 47.9627C77.0729 48.2117 76.5253 48.6102 76.0773 48.8592C75.9279 48.9583 75.7454 49.0252 75.5795 49.0584C75.2316 49.158 75.0153 49.0247 74.8992 48.6766C74.7498 48.3113 74.866 48.1121 74.4683 48.3944C74.0369 48.7264 73.5718 49.2908 73.1404 49.6395C73.0408 49.7225 72.9578 49.8055 72.8417 49.8719C72.6431 49.9378 72.4932 49.8221 72.5264 49.6063C72.543 49.5067 72.5762 49.4403 72.6426 49.3407C72.6525 49.3202 72.663 49.2997 72.673 49.2792C71.9711 49.6572 70.9556 49.9162 70.9556 49.0418C70.9556 48.8592 70.9888 48.6766 71.022 48.4608C70.4578 48.8094 69.9269 49.1746 69.3461 49.4735C69.2134 49.5731 69.0308 49.5897 68.8815 49.6063C68.6658 49.6395 68.4667 49.5725 68.3671 49.3905C68.251 49.1912 68.3008 49.0086 68.4169 48.8426C68.5165 48.7098 68.6 48.6096 68.7322 48.494C69.3129 47.9959 69.9932 47.7303 70.7897 47.7967C70.9058 47.8133 71.0386 47.7796 71.1381 47.6639C71.2875 47.5145 71.4368 47.3479 71.5862 47.199C71.6354 47.1326 71.7023 47.0496 71.7687 47.033C71.835 47.0164 71.9512 47.0164 72.0176 47.0496C72.0673 47.116 72.1005 47.1996 72.0839 47.2987C72.0673 47.4149 72.0176 47.5145 71.9512 47.6307C71.8179 47.9135 70.9562 49.5061 71.9678 49.2078C72.2333 49.1414 72.5485 48.9422 72.8638 48.7928C72.8887 48.7828 72.9147 48.7679 72.9418 48.7529C73.095 48.4558 73.2521 48.157 73.4224 47.8465C73.439 47.7801 73.4728 47.6805 73.5225 47.6473C73.5889 47.5975 73.6885 47.5477 73.7548 47.5809C73.8041 47.598 73.8704 47.6971 73.8704 47.7796C73.8373 47.8958 73.7875 47.9959 73.7548 48.0955C73.6713 48.2616 73.3893 48.7596 73.3727 48.9588C73.5552 48.8426 73.9368 48.3612 74.1359 48.2283C74.2687 48.1287 74.4014 48.0623 74.5341 47.9959C74.8992 47.8465 75.1652 47.9793 75.298 48.3612C75.314 48.4276 75.3306 48.5106 75.3472 48.577C75.5131 48.66 75.6459 48.577 75.7786 48.5106C76.2427 48.2449 76.6746 47.9793 77.1392 47.7469C77.3212 47.6473 77.5375 47.5477 77.7366 47.5145C78.0518 47.4481 78.2841 47.5809 78.3339 47.9129C78.3837 48.1121 78.3837 48.3446 78.3505 48.5438C78.3007 49.0413 78.5336 49.1575 78.9644 49.0247C79.2609 48.9588 79.6547 48.7635 79.9362 48.6628C79.9423 48.6511 79.9479 48.6384 79.955 48.6268C80.3699 47.7967 81.0502 47.2156 82.0126 46.9666C82.4274 46.867 82.8588 46.784 83.3068 46.7342C83.7548 46.6512 84.2034 46.618 84.6514 46.5682ZM112.23 48.7928C111.468 49.7053 112.447 50.1536 112.878 49.2078C112.53 49.2078 112.297 49.1077 112.23 48.7928ZM92.7365 47.033C92.8029 47.0164 92.9191 47.0164 92.9854 47.0496C93.0352 47.116 93.0684 47.1996 93.0518 47.2987C93.0352 47.4149 92.9854 47.5145 92.9191 47.6307C92.7858 47.9135 91.924 49.5061 92.9357 49.2078C93.2011 49.1414 93.5164 48.9422 93.8317 48.7928C93.9146 48.759 94.0142 48.6766 94.1137 48.6932C94.2299 48.7264 94.3129 48.8592 94.1635 48.9256C93.6657 49.3905 91.924 50.1868 91.9235 49.0418C91.9235 48.8592 91.9567 48.6766 91.9898 48.4608C91.4257 48.8094 90.8947 49.1746 90.314 49.4735C90.1812 49.5731 89.9987 49.5897 89.8494 49.6063C89.6337 49.6395 89.4345 49.5725 89.335 49.3905C89.2194 49.1912 89.2692 49.0086 89.3848 48.8426C89.4843 48.7098 89.5678 48.6096 89.7006 48.494C90.2808 47.9959 90.9616 47.7303 91.7576 47.7967C91.8737 47.8133 92.0065 47.7796 92.106 47.6639C92.2553 47.5145 92.4047 47.3479 92.554 47.199C92.6038 47.1326 92.6702 47.0496 92.7365 47.033ZM70.7067 48.1287C70.043 48.1785 69.2134 48.5604 68.8317 49.1248C69.4788 49.0086 70.2587 48.5604 70.7067 48.1287ZM91.6746 48.1287C91.0109 48.1785 90.1812 48.5604 89.7996 49.1248C90.4467 49.0086 91.2266 48.5604 91.6746 48.1287ZM113.641 47.6971C113.227 47.8299 112.96 48.0623 112.778 48.3778C112.728 48.4602 112.712 48.5604 112.828 48.6434C112.96 48.7762 113.259 48.759 113.343 48.577C113.475 48.3944 113.575 48.1614 113.641 47.9627C113.674 47.929 113.641 47.8294 113.641 47.6971ZM124.89 45.9705C125.072 45.9705 125.172 46.1033 125.139 46.2528C125.089 46.4188 124.856 46.6512 124.641 46.784C124.326 46.9661 124.209 46.9495 124.292 46.5344C124.325 46.2694 124.508 45.9705 124.89 45.9705ZM108.366 42.6663C107.652 43.1643 107.005 43.7127 106.424 44.327C107.071 43.9783 108.199 42.9983 108.366 42.6663ZM0.553649 33.0432H32.7569V0.553386H0.553649V33.0432ZM33.31 33.0432H199.552H365.794V0.553386H33.31V33.0432ZM27.4226 27.5078L27.0315 27.899L5.94362 6.80006L6.33466 6.40882L27.4226 27.5078ZM60.3389 19.5377H60.3948L62.0353 15.5289H62.7333V20.3586H62.1863V16.6892H62.1393L60.631 20.3586H60.1028L58.5945 16.6892H58.5469V20.3586H58.0005V15.5289H58.6985L60.3389 19.5377ZM70.8007 16.0477H68.4722V17.6797H70.6498V18.1985H68.4722V19.8398H70.8384V20.3586H67.8876V15.5289H70.8007V16.0477ZM78.7498 16.0477H76.4213V17.6797H78.5988V18.1985H76.4213V19.8398H78.7875V20.3586H75.8361V15.5289H78.7498V16.0477ZM86.6801 16.0477H84.3699V17.6797H86.4628V18.1985H84.3699V20.3586H83.7852V15.5289H86.6801V16.0477ZM92.2476 19.8398H94.4915V20.3586H91.663V15.5289H92.2476V19.8398ZM102.292 16.0477H99.9633V17.6797H102.141V18.1985H99.9633V19.8398H102.33V20.3586H99.3792V15.5289H102.292V16.0477ZM110.241 16.0477H107.912V17.6797H110.09V18.1985H107.912V19.8398H110.279V20.3586H107.328V15.5289H110.241V16.0477ZM118.633 16.0477H117.115V20.3586H116.531V16.0477H115.013V15.5289H118.633V16.0477Z" fill="#0033FF" stroke="black" stroke-width="2" mask="url(#path-2-inside-1_179_73)"/>
</svg>
